<?xml version="1.0" encoding="utf-8" ?>
<svg baseProfile="full" height="200mm" version="1.1" viewBox="0,0,200,200" width="200mm" xmlns="http://www.w3.org/2000/svg" xmlns:ev="http://www.w3.org/2001/xml-events" xmlns:xlink="http://www.w3.org/1999/xlink"><defs /><rect fill="#1a1a1a" height="200" width="200" x="0" y="0" /><text alignment-baseline="middle" fill="#e1ed5e" style="dominant-baseline: central; font-size:9.0px; font-family:Arial;" text-anchor="middle" x="100.0" y="100.0">2024</text><line stroke="#e1ed5e" stroke-width="0.3" x1="100.0" x2="100.0" y1="15.0" y2="10.0" /><path d="M 100.0 14.0 a86.0,86.0 0 0,1 42.35913384403234,11.155469271406648" fill="none" id="id37" stroke="none" /><text fill="#e1ed5e" style="font-size:6.75px; font-family:Arial;" text-anchor="middle"><textPath startOffset="22.145653131862478" xlink:href="#id37">January</textPath></text><line stroke="#e1ed5e" stroke-width="0.3" x1="143.13028292997686" x2="145.6673583964461" y1="26.7553504044142" y2="22.446841604673864" /><path d="M 143.63769802327073 25.89364864446614 a86.0,86.0 0 0,1 29.32050498858742,28.57503671076993" fill="none" id="id38" stroke="none" /><text fill="#e1ed5e" style="font-size:6.75px; font-family:Arial;" text-anchor="middle"><textPath startOffset="20.669276256404974" xlink:href="#id38">February</textPath></text><line stroke="#e1ed5e" stroke-width="0.3" x1="172.87174338648825" x2="177.1583165268699" y1="56.24261187166439" y2="53.66864786411523" /><path d="M 173.72905801456457 55.72781907015455 a86.0,86.0 0 0,1 12.242430191666344,42.057860355516425" fill="none" id="id39" stroke="none" /><text fill="#e1ed5e" style="font-size:6.75px; font-family:Arial;" text-anchor="middle"><textPath startOffset="22.145653131862474" xlink:href="#id39">March</textPath></text><line stroke="#e1ed5e" stroke-width="0.3" x1="184.99686870605535" x2="189.99668451229388" y1="99.2704041080226" y2="99.22748670261217" /><path d="M 185.99683186730306 99.26182062694052 a86.0,86.0 0 0,1 -10.086455211305974,41.156179273409016" fill="none" id="id40" stroke="none" /><text fill="#e1ed5e" style="font-size:6.75px; font-family:Arial;" text-anchor="middle"><textPath startOffset="21.40746469413373" xlink:href="#id40">April</textPath></text><line stroke="#e1ed5e" stroke-width="0.3" x1="174.33088141563837" x2="178.70328620479359" y1="141.23008692659167" y2="143.65538615756765" /><path d="M 175.20536237346943 141.71514677278685 a86.0,86.0 0 0,1 -30.301960400862466,31.631185727798858" fill="none" id="id41" stroke="none" /><text fill="#e1ed5e" style="font-size:6.75px; font-family:Arial;" text-anchor="middle"><textPath startOffset="22.145653131862474" xlink:href="#id41">May</textPath></text><path d="M 115.6541949942343 113.99807769240083 l 7.469856886161976 6.679592089029374 a31.020764061465837,31.020764061465837 0 0,0 -0.35836708014062846,0.3939081977468536 l -7.354092105179467 -6.806837862333899" fill="red" stroke="none" /><path d="M 114.91283532996324 114.78537596483092 l 6.02170195464069 5.970234725829247 a29.47965784168329,29.47965784168329 0 0,0 -0.359382409489284,0.3563107834208859 l -5.918327625021441 -6.072725519478794" fill="red" stroke="none" /><path d="M 113.31354834802062 116.24036423190432 l 5.970614241268325 7.283178566051389 a30.41769209748474,30.41769209748474 0 0,0 -0.4066544582828554,0.3275720460339561 l -5.844709012630217 -7.384598905878749" fill="red" stroke="none" /><path d="M 110.96478420261333 117.91015095944535 l 4.39036713564472 7.171334767176136 a29.408529355877782,29.408529355877782 0 0,0 -0.43281967151051676,0.2598957768228198 l -4.266614707576766 -7.245644544534879" fill="red" stroke="none" /><line stroke="#e1ed5e" stroke-width="0.3" x1="143.1302829299769" x2="145.66735839644613" y1="173.24464959558577" y2="177.55315839532614" /><path d="M 143.63769802327073 174.10635135553383 a86.0,86.0 0 0,1 -40.68552437913181,11.842963189579606" fill="none" id="id42" stroke="none" /><text fill="#e1ed5e" style="font-size:6.75px; font-family:Arial;" text-anchor="middle"><textPath startOffset="21.407464694133747" xlink:href="#id42">June</textPath></text><path d="M 102.51750503828377 120.84855314841334 l 2.0098673522364563 16.644584887475958 a37.76549351644559,37.76549351644559 0 0,0 -0.6442866897747733,0.07219366744269672 l -1.7238447608608836 -16.676634315425627" fill="red" stroke="none" /><line stroke="#e1ed5e" stroke-width="0.3" x1="101.45913802915013" x2="101.54496967792366" y1="184.9874750549273" y2="189.98673829345242" /><path d="M 101.47630435890484 185.9873277026323 a86.0,86.0 0 0,1 -42.54439059252881,-10.42667462771756" fill="none" id="id43" stroke="none" /><text fill="#e1ed5e" style="font-size:6.75px; font-family:Arial;" text-anchor="middle"><textPath startOffset="22.145653131862474" xlink:href="#id43">July</textPath></text><path d="M 99.63950707515114 120.99690560180557 l -0.36736272791513197 21.397037189814412 a42.40019055700585,42.40019055700585 0 0,0 -0.7276411503622989,-0.018741454912475145 l 0.7346171923481748 -21.387578017551892" fill="red" stroke="none" /><path d="M 99.27912038922189 120.98762331915562 l -2.043006261446429 59.479898186650544 a80.51497427436749,80.51497427436749 0 0,0 -1.3809247437863499,-0.059302850251664305 l 3.0637567658336176 -59.436062767973056" fill="red" stroke="none" /><path d="M 96.41257539226777 120.69131181640829 l -0.5702043755455557 3.2887873122305664 a24.337851856356128,24.337851856356128 0 0,0 -0.4110376530204497,-0.0749047527649615 l 0.6265767621170626 -3.2785143855342387" fill="red" stroke="none" /><path d="M 95.70440661134978 120.55596938700252 l -2.4260635009381306 11.609592096862512 a32.860371527322265,32.860371527322265 0 0,0 -0.5511741836086348,-0.12012584796841883 l 2.625000101165902 -11.566234790760374" fill="red" stroke="none" /><path d="M 91.92203290615298 119.3841803445677 l -5.86190193161711 14.066430685411714 a36.238975243873476,36.238975243873476 0 0,0 -0.5721701477445483,-0.24422541273206586 l 6.1025071545320895 -13.963730623020243" fill="red" stroke="none" /><path d="M 90.93487009805054 118.94263497670748 l -18.672816877189774 39.0190055649884 a64.25687096184441,64.25687096184441 0 0,0 -0.9909013845468126,-0.4846995218834543 l 19.339878510998656 -38.692712293007716" fill="red" stroke="none" /><path d="M 89.97174638481275 118.45085714620012 l -3.8774607005778114 7.1340909615627375 a29.119726308957496,29.119726308957496 0 0,0 -0.4371506170572616,-0.24248007823962117 l 3.9993555057911756 -7.066477967889968" fill="red" stroke="none" /><line stroke="#e1ed5e" stroke-width="0.3" x1="58.13341422392154" x2="55.67067388415222" y1="173.97424548756322" y2="178.32567169271397" /><path d="M 57.64086615596768 174.84453072859336 a86.0,86.0 0 0,1 -31.369924170532247,-30.572349798747897" fill="none" id="id44" stroke="none" /><text fill="#e1ed5e" style="font-size:6.75px; font-family:Arial;" text-anchor="middle"><textPath startOffset="22.145653131862474" xlink:href="#id44">August</textPath></text><path d="M 89.03521579738668 117.91015095944536 l -5.777799827021898 9.437601798926051 a32.065771484909064,32.065771484909064 0 0,0 -0.46699348371986454,-0.29143847252991384 l 5.938957439531475 -9.337027529554591" fill="red" stroke="none" /><path d="M 88.72937992617639 117.7192867562869 l -5.354298494877547 8.417846559289089 a30.976404816765562,30.976404816765562 0 0,0 -0.44622892943308357,-0.2892402008735491 l 5.49801305656764 -8.324692516711645" fill="red" stroke="none" /><path d="M 87.54013794807813 116.9041958592261 l -21.552066774655117 29.23951777409085 a57.324110201360305,57.324110201360305 0 0,0 -0.7871064685672425,-0.5906593679331024 l 22.050826232133126 -28.86523937889373" fill="red" stroke="none" /><path d="M 86.13680546590413 115.77377054828092 l -8.788513037261799 9.999714551317462 a34.312860418180264,34.312860418180264 0 0,0 -0.43909836305205197,-0.39264446385601304 l 8.958876427137222 -9.847374557578066" fill="red" stroke="none" /><path d="M 85.60350026404147 115.28858382429668 l -7.267717557108323 7.718064190674982 a31.601331677731814,31.601331677731814 0 0,0 -0.3917474342385531,-0.37528518031505953 l 7.399137477212191 -7.592166880054339" fill="red" stroke="none" /><path d="M 85.08716467003676 114.78537596483092 l -13.196628308153985 13.083837290964585 a39.58326658475325,39.58326658475325 0 0,0 -0.47427011077571607,-0.486642914572223 l 13.419285220080509 -12.855371684324625" fill="red" stroke="none" /><path d="M 84.3458050057657 113.99807769240083 l -14.670069723311242 13.118066806723862 a40.679802398207244,40.679802398207244 0 0,0 -0.4610163281487637,-0.524551953833188 l 14.893097115418598 -12.864302575079373" fill="red" stroke="none" /><path d="M 84.1078160697243 113.72728997021213 l -6.946149739167636 5.999918706227383 a30.178672054293905,30.178672054293905 0 0,0 -0.3352784884001312,-0.39495721628958624 l 7.04812279107488 -5.879794707488243" fill="red" stroke="none" /><path d="M 82.98947788004972 112.3143062007846 l -6.240584737398869 4.517702089705009 a28.704189122547596,28.704189122547596 0 0,0 -0.28551770079241573,-0.4016164025258011 l 6.3172175367212455 -4.409908460469703" fill="red" stroke="none" /><path d="M 82.78059297857968 112.02048342749411 l -6.7729256367750965 4.7280281063818945 a29.25994984585394,29.25994984585394 0 0,0 -0.2839751466120896,-0.41432822560711313 l 6.853090520202511 -4.611065145704731" fill="red" stroke="none" /><line stroke="#e1ed5e" stroke-width="0.3" x1="26.387840678322732" x2="22.057713659400548" y1="142.50000000000003" y2="145.00000000000006" /><path d="M 25.521815274538298 143.00000000000003 a86.0,86.0 0 0,1 -11.493303480769221,-40.785679425670985" fill="none" id="id45" stroke="none" /><text fill="#e1ed5e" style="font-size:6.75px; font-family:Arial;" text-anchor="middle"><textPath startOffset="21.40746469413373" xlink:href="#id45">September</textPath></text><path d="M 81.81346652052679 110.50000000000001 l -31.50537284188551 18.18963549118215 a57.37927098236426,57.37927098236426 0 0,0 -0.48517352694594734,-0.8572551336840339 l 31.81297973385284 -17.646123587398993" fill="red" stroke="none" /><path d="M 80.5471966667186 107.91128576633889 l -16.666582292925508 6.778153925092694 a38.99217429770809,38.99217429770809 0 0,0 -0.24684149128995905,-0.6222018068473021 l 16.78048245918159 -6.491051101031826" fill="red" stroke="none" /><path d="M 80.41425534168474 107.57618678355246 l -58.7572339749458 22.72856035065739 a84.0,84.0 0 0,0 -0.5086772647422562,-1.3493268792234203 l 59.13874192350249 -21.716565191239823" fill="red" stroke="none" /><path d="M 80.28708602549918 107.23885506374661 l -11.440482920408625 4.201103795574374 a33.18744938669904,33.18744938669904 0 0,0 -0.19179158163071602,-0.5364751882696073 l 11.510914672083285 -4.004093650923846" fill="red" stroke="none" /><path d="M 80.16572619554312 106.89939002012753 l -13.11770548742648 4.5630189045078895 a34.88867663882183,34.88867663882183 0 0,0 -0.19191194161102382,-0.5673535548557185 l 13.194102850609871 -4.337163675178009" fill="red" stroke="none" /><path d="M 79.83685265289637 105.86919833188381 l -14.732612010340182 4.288448640821981 a36.3440753514895,36.3440753514895 0 0,0 -0.16922754723923392,-0.6005288647637764 l 14.80405804965399 -4.034911852155209" fill="red" stroke="none" /><path d="M 79.56144815229197 104.8234425847677 l -7.780365434426186 1.8361450576878482 a28.994092504223683,28.994092504223683 0 0,0 -0.11016255527758716,-0.48539654490861356 l 7.81073885126144 -1.7023141788402083" fill="red" stroke="none" /><path d="M 79.48165901384964 104.47187691870673 l -13.208934023947835 2.878825691720545 a34.51900793003381,34.51900793003381 0 0,0 -0.12121479356345373,-0.580056667450354 l 13.256406528335654 -2.6516525729847817" fill="red" stroke="none" /><path d="M 79.2786578344484 103.40968896794605 l -15.91572688277823 2.618926801916773 a37.12975944646998,37.12975944646998 0 0,0 -0.09809065006453431,-0.6298123388988092 l 15.958339024981033 -2.345326281086514" fill="red" stroke="none" /><path d="M 79.13060592940153 102.33845913500099 l -2.7472908259956506 0.3078396673531063 a23.76448406459432,23.76448406459432 0 0,0 -0.04194726515152778,-0.4058017388496602 l 2.7521704836288445 -0.2606334062205147" fill="red" stroke="none" /><path d="M 79.03789590574601 101.26102812881392 l -9.206768263711876 0.553856316322483 a30.2234125290384,30.2234125290384 0 0,0 -0.026709452273202847,-0.5181562386126162 l 9.214919305441652 -0.395728284333136" fill="red" stroke="none" /><path d="M 79.00696218219943 100.54070618675478 l -6.837074757446371 0.1760987929779965 a27.839342221573553,27.839342221573553 0 0,0 -0.008204079694588227,-0.47784651243615045 l 6.839090268739625 -0.05870536457279364" fill="red" stroke="none" /><line stroke="#e1ed5e" stroke-width="0.3" x1="15.003131293944662" x2="10.003315487706104" y1="100.72959589197737" y2="100.7725132973878" /><path d="M 14.003168132696942 100.73817937305945 a86.0,86.0 0 0,1 10.791469493833604,-42.45332614584628" fill="none" id="id46" stroke="none" /><text fill="#e1ed5e" style="font-size:6.75px; font-family:Arial;" text-anchor="middle"><textPath startOffset="22.145653131862435" xlink:href="#id46">October</textPath></text><path d="M 79.00077361379809 100.18025310272382 l -8.0097380578859 0.06875396790272627 a29.010033137512487,29.010033137512487 0 0,0 0.0,-0.4980141412530847 l 8.0097380578859 0.06875396790272333" fill="red" stroke="none" /><path d="M 79.06263194458094 98.37931529534042 l -6.662437526350673 -0.5157148007393362 a27.6823675107126,27.6823675107126 0 0,0 0.04074103309075337,-0.47347256041234465 l 6.652602870562177 0.6300084085273615" fill="red" stroke="none" /><path d="M 79.13060592940154 97.66154086499901 l -9.928051757429158 -1.1124589073542326 a30.9901840082525,30.9901840082525 0 0,0 0.06377767139360299,-0.5281706099933228 l 9.907491999775885 1.2827231942709916" fill="red" stroke="none" /><path d="M 79.22317932658666 96.9465228501225 l -7.878126762885109 -1.15781333594944 a28.96275159809654,28.96275159809654 0 0,0 0.07651477343963826,-0.49127973347741766 l 7.857090497307203 1.2928812513583077" fill="red" stroke="none" /><path d="M 79.407916724674 95.88100663000787 l -9.386278691616287 -1.8775186163894255 a30.572215199815496,30.572215199815496 0 0,0 0.10735548257164204,-0.5137348472274785 l 9.352665498220277 2.0383699149023133" fill="red" stroke="none" /><path d="M 79.56144815229197 95.17655741523228 l -7.345697864360398 -1.733564694690758 a28.547484591911875,28.547484591911875 0 0,0 0.11665382212237255,-0.4759874024736881 l 7.3148565157217265 1.8594079217725636" fill="red" stroke="none" /><path d="M 79.73907114497095 94.47779374421319 l -10.608549627531488 -2.891407375108481 a31.99552462634822,31.99552462634822 0 0,0 0.14897955451567493,-0.5286758817099447 l 10.55735158094123 3.073091180721439" fill="red" stroke="none" /><path d="M 80.05021161711548 93.44210830539832 l -18.883870915174153 -6.207503451154162 a40.877969711141304,40.877969711141304 0 0,0 0.22485721134095815,-0.6647503908214616 l 18.77452828226083 6.530755516449785" fill="red" stroke="none" /><path d="M 80.28708602549916 92.7611449362534 l -5.331619198117174 -1.957844420169565 a26.679728694869212,26.679728694869212 0 0,0 0.16156394543537564,-0.42856756021875486 l 5.297224568867363 2.049080260582465" fill="red" stroke="none" /><path d="M 80.68587082218212 91.75594674310238 l -9.332300761571751 -3.9834042622094503 a31.14688853888822,31.14688853888822 0 0,0 0.21412168502900922,-0.48995231870752903 l 9.262545194525766 4.143018650692846" fill="red" stroke="none" /><path d="M 80.9802524753101 91.09779779509293 l -8.271200743311582 -3.871339585278636 a30.132361793134535,30.132361793134535 0 0,0 0.2232962143651526,-0.46660320658947535 l 8.203525270986525 4.012755293933198" fill="red" stroke="none" /><path d="M 81.63589988554816 89.8137432299009 l -11.378168442202227 -6.3112782332579895 a34.01133928681912,34.01133928681912 0 0,0 0.2875847175369992,-0.5081346400524679 l 11.26815035964386 6.505669643409563" fill="red" stroke="none" /><line stroke="#e1ed5e" stroke-width="0.3" x1="26.387840678322718" x2="22.05771365940052" y1="57.49999999999999" y2="54.99999999999999" /><path d="M 25.521815274538284 56.99999999999999 a86.0,86.0 0 0,1 29.574782752854787,-30.34633250058573" fill="none" id="id47" stroke="none" /><text fill="#e1ed5e" style="font-size:6.75px; font-family:Arial;" text-anchor="middle"><textPath startOffset="21.40746469413373" xlink:href="#id47">November</textPath></text><path d="M 82.576782715395 88.27688183743585 l -5.760747523180832 -3.8760880275894882 a27.943361608288644,27.943361608288644 0 0,0 0.2711973277928656,-0.3956850060801225 l 5.693360458572654 3.9744077687396455" fill="red" stroke="none" /><path d="M 83.42222388311158 87.10902102172516 l -12.159384053610443 -9.455210585464426 a36.402974640590514,36.402974640590514 0 0,0 0.38783654531447764,-0.4900188053845001 l 11.995281077654404 9.662549334763609" fill="red" stroke="none" /><path d="M 83.8745106332314 86.54754324733833 l -6.632484130146821 -5.53305415384082 a29.637391620505845,29.637391620505845 0 0,0 0.3292649804063192,-0.3878733189936271 l 6.536524586233388 5.646094255284004" fill="red" stroke="none" /><line stroke="#e1ed5e" stroke-width="0.3" x1="56.869717070023135" x2="54.33264160355391" y1="26.7553504044142" y2="22.446841604673864" /><path d="M 56.362301976729285 25.89364864446614 a86.0,86.0 0 0,1 42.16139366436587,-11.88097634709845" fill="none" id="id48" stroke="none" /><text fill="#e1ed5e" style="font-size:6.75px; font-family:Arial;" text-anchor="middle"><textPath startOffset="22.145653131862474" xlink:href="#id48">December</textPath></text></svg>