<?xml version="1.0" encoding="utf-8" ?>
<svg baseProfile="full" height="200mm" version="1.1" viewBox="0,0,200,200" width="200mm" xmlns="http://www.w3.org/2000/svg" xmlns:ev="http://www.w3.org/2001/xml-events" xmlns:xlink="http://www.w3.org/1999/xlink"><defs /><rect fill="#1a1a1a" height="200" width="200" x="0" y="0" /><text alignment-baseline="middle" fill="#e1ed5e" style="dominant-baseline: central; font-size:9.0px; font-family:Arial;" text-anchor="middle" x="100.0" y="100.0">2022</text><line stroke="#e1ed5e" stroke-width="0.3" x1="100.0" x2="100.0" y1="15.0" y2="10.0" /><path d="M 100.0 14.0 a86.0,86.0 0 0,1 42.46469731375804,11.215312516191453" fill="none" id="id13" stroke="none" /><text fill="#e1ed5e" style="font-size:6.75px; font-family:Arial;" text-anchor="middle"><textPath startOffset="22.20632615414155" xlink:href="#id13">January</textPath></text><line stroke="#e1ed5e" stroke-width="0.3" x1="143.23703022742887" x2="145.7803849466894" y1="26.81831364943548" y2="22.513508569990506" /><path d="M 143.74570117128098 25.957352633546492 a86.0,86.0 0 0,1 28.547481713284135,27.462654790039103" fill="none" id="id14" stroke="none" /><text fill="#e1ed5e" style="font-size:6.75px; font-family:Arial;" text-anchor="middle"><textPath startOffset="19.985693538727396" xlink:href="#id14">February</textPath></text><line stroke="#e1ed5e" stroke-width="0.3" x1="172.23445277983987" x2="176.4835382374775" y1="55.19839476539836" y2="52.563006222186495" /><path d="M 173.08426987136738 54.67131705675599 a86.0,86.0 0 0,1 12.851231095245387,41.99856678651699" fill="none" id="id15" stroke="none" /><text fill="#e1ed5e" style="font-size:6.75px; font-family:Arial;" text-anchor="middle"><textPath startOffset="22.20632615414155" xlink:href="#id15">March</textPath></text><line stroke="#e1ed5e" stroke-width="0.3" x1="184.98032266829074" x2="189.97916517819016" y1="98.17113171792111" y2="98.06355123074" /><path d="M 185.9800911702706 98.14961562048488 a86.0,86.0 0 0,1 -9.607161424134198,41.387399972396054" fill="none" id="id16" stroke="none" /><text fill="#e1ed5e" style="font-size:6.75px; font-family:Arial;" text-anchor="middle"><textPath startOffset="21.466115282336823" xlink:href="#id16">April</textPath></text><line stroke="#e1ed5e" stroke-width="0.3" x1="174.80103733775053" x2="179.2010983576182" y1="140.37084112569926" y2="142.7455964860345" /><path d="M 175.68104954172406 140.8457921977663 a86.0,86.0 0 0,1 -30.038265399797805,32.042727171017184" fill="none" id="id17" stroke="none" /><text fill="#e1ed5e" style="font-size:6.75px; font-family:Arial;" text-anchor="middle"><textPath startOffset="22.206326154141568" xlink:href="#id17">May</textPath></text><line stroke="#e1ed5e" stroke-width="0.3" x1="143.8653032363475" x2="146.44561519142675" y1="172.8068346515853" y2="177.08958963109032" /><path d="M 144.38136562736335 173.6633856474863 a86.0,86.0 0 0,1 -40.68145358897372,12.25698825130547" fill="none" id="id18" stroke="none" /><text fill="#e1ed5e" style="font-size:6.75px; font-family:Arial;" text-anchor="middle"><textPath startOffset="21.466115282336833" xlink:href="#id18">June</textPath></text><line stroke="#e1ed5e" stroke-width="0.3" x1="102.19456741930631" x2="102.32365962044197" y1="184.97166512339345" y2="189.96999836594603" /><path d="M 102.22038585953345 185.97133177190398 a86.0,86.0 0 0,1 -42.740103519485714,-10.115201625700543" fill="none" id="id19" stroke="none" /><text fill="#e1ed5e" style="font-size:6.75px; font-family:Arial;" text-anchor="middle"><textPath startOffset="22.20632615414155" xlink:href="#id19">July</textPath></text><line stroke="#e1ed5e" stroke-width="0.3" x1="58.666819895761336" x2="56.23545636021788" y1="174.27360380694188" y2="178.64263932499728" /><path d="M 58.180547188652646 175.14741091055294 a86.0,86.0 0 0,1 -31.652253787137756,-30.449443065178592" fill="none" id="id20" stroke="none" /><text fill="#e1ed5e" style="font-size:6.75px; font-family:Arial;" text-anchor="middle"><textPath startOffset="22.20632615414155" xlink:href="#id20">August</textPath></text><line stroke="#e1ed5e" stroke-width="0.3" x1="26.63291911575756" x2="22.317208475507996" y1="142.92168965132927" y2="145.44649492493687" /><path d="M 25.769776987707644 143.4266507060508 a86.0,86.0 0 0,1 -11.730757126820373,-40.83630448921669" fill="none" id="id21" stroke="none" /><text fill="#e1ed5e" style="font-size:6.75px; font-family:Arial;" text-anchor="middle"><textPath startOffset="21.46611528233685" xlink:href="#id21">September</textPath></text><path d="M 79.67330655649465 105.27499134158121 l -13.895364000792695 3.6059935176382756 a35.355637567303475,35.355637567303475 0 0,0 -0.147801188299706,-0.5903922769147166 l 13.955376503387459 -3.366273401326167" fill="red" stroke="none" /><path d="M 79.35854240842038 103.8639653848113 l -18.444017623520836 3.452616916123517 a39.76439046881751,39.76439046881751 0 0,0 -0.12015200206952985,-0.6738762360178603 l 18.500716067929552 -3.134621929372443" fill="red" stroke="none" /><path d="M 79.29508885075956 103.50808413554451 l -10.185978347818288 1.7258354208533802 a31.331150120005766,31.331150120005766 0 0,0 -0.08551650279627453,-0.5325113445442866 l 10.214176604975854 -1.5502448466158798" fill="red" stroke="none" /><path d="M 79.18660465613746 102.79330883721812 l -51.723266614159634 6.941638081444757 a73.1869969292467,73.1869969292467 0 0,0 -0.15682401926531728,-1.2500417340734638 l 51.8350921426718 -6.050278593083885" fill="red" stroke="none" /><path d="M 79.10278846688536 102.07522291339032 l -34.40762225520383 3.4168906213218158 a55.57686525373396,55.57686525373396 0 0,0 -0.08634369840750734,-0.9527955170225114 l 34.46134054988841 -2.824113715750738" fill="red" stroke="none" /><path d="M 79.04373962182676 101.35467743843564 l -30.059296891861965 1.94312585259993 a51.122036247772904,51.122036247772904 0 0,0 -0.049207757267970026,-0.8786375619212485 l 30.08829100001747 -1.4254165743432439" fill="red" stroke="none" /><path d="M 79.0235259727143 100.99374915477108 l -20.50842749657126 0.9715757025652412 a41.53142853597711,41.53142853597711 0 0,0 -0.02768340091173586,-0.7143855691051003 l 20.522113030334197 -0.618412886446144" fill="red" stroke="none" /><line stroke="#e1ed5e" stroke-width="0.3" x1="15.007084014347285" x2="10.007500721073583" y1="101.09737516637583" y2="101.16192664675087" /><path d="M 14.007167355692545 101.11028546245083 a86.0,86.0 0 0,1 10.666146001902534,-42.60595125391555" fill="none" id="id22" stroke="none" /><text fill="#e1ed5e" style="font-size:6.75px; font-family:Arial;" text-anchor="middle"><textPath startOffset="22.20632615414155" xlink:href="#id22">October</textPath></text><path d="M 79.00175016825051 100.2711162175752 l -62.994749495248485 0.8133486527256131 a84.0,84.0 0 0,0 -0.006222810841987947,-1.4459620871852985 l 62.99941660337998 0.27112291266336075" fill="red" stroke="none" /><path d="M 79.01574976396665 99.18683210126434 l -35.23297289450354 -1.365325051530145 a56.2594170609946,56.2594170609946 0 0,0 0.04582836327620737,-0.967364316599483 l 35.204250922993836 1.971600474752637" fill="red" stroke="none" /><path d="M 79.05617556472873 98.46500227214037 l -36.85379428709412 -2.7010582841988517 a57.95264360245543,57.95264360245543 0 0,0 0.08148008173272461,-0.9942633786182081 l 36.801839721541896 3.3350355800248384" fill="red" stroke="none" /><path d="M 79.16333360222342 97.38593545837743 l -25.723836347899145 -3.2271845787539304 a46.92547929660789,46.92547929660789 0 0,0 0.10744594241474721,-0.8005970724666274 l 25.664474406426564 3.6694999932852173" fill="red" stroke="none" /><path d="M 79.21141760316559 97.0276538004421 l -30.848803558330044 -4.410754050813645 a52.16253250743921,52.16253250743921 0 0,0 0.13473857008616164,-0.8877588294302441 l 30.768309094804582 4.941111992635982" fill="red" stroke="none" /><path d="M 79.26566170972629 96.67025291283419 l -29.79371752114301 -4.784601405794721 a51.1754538382109,51.1754538382109 0 0,0 0.14716144729272923,-0.8685551922536034 l 29.706944212330058 5.296742386364152" fill="red" stroke="none" /><path d="M 79.32604984820605 96.31383870115002 l -10.612450607986688 -1.8921978833214421 a31.7798200697694,31.7798200697694 0 0,0 0.10065770124836013,-0.5377174650039991 l 10.578307182828466 2.074593425788014" fill="red" stroke="none" /><path d="M 79.46518482838121 95.60439243477599 l -5.555661054284363 -1.1892245221561264 a26.68151605772522,26.68151605772522 0 0,0 0.09999928938277337,-0.44827720641279845 l 5.534367377899552 1.284679898118884" fill="red" stroke="none" /><path d="M 79.54389044137918 95.25157060432595 l -28.732709262871726 -6.669657340766349 a50.49665931301294,50.49665931301294 0 0,0 0.20383144791179791,-0.8450129444979432 l 28.613645014699113 7.163255516923689" fill="red" stroke="none" /><path d="M 79.62865764111835 94.90015583598534 l -51.356191578675706 -12.856716523363463 a73.94103864893253,73.94103864893253 0 0,0 0.31971988260202133,-1.232011129613862 l 51.12727536420337 13.738824078526187" fill="red" stroke="none" /><path d="M 79.81627453868168 94.20196356495316 l -5.739832638289789 -1.6488412325888604 a26.971964176538727,26.971964176538727 0 0,0 0.13202661241249886,-0.445128103110162 l 5.7106001287655825 1.7473987224455616" fill="red" stroke="none" /><path d="M 80.02781315780177 93.51064311812611 l -17.1442076440331 -5.570490739853101 a39.026486702197744,39.026486702197744 0 0,0 0.213089646659711,-0.637110920950367 l 17.045780703601615 5.864774763725791" fill="red" stroke="none" /><path d="M 80.14247586403 93.16781622104843 l -3.7080419706446714 -1.2757896719672108 a24.92137916340165,24.92137916340165 0 0,0 0.1430569276246988,-0.40444119864808 l 3.6855319622101628 1.339428497041902" fill="red" stroke="none" /><path d="M 80.2630227832202 92.82701384747504 l -51.49662570854728 -18.715357425408097 a75.79203466679249,75.79203466679249 0 0,0 0.45617930523848305,-1.222333739957747 l 51.166841814807164 19.599014302395183" fill="red" stroke="none" /><path d="M 80.38941819471856 92.48833698450439 l -5.123760465458154 -1.9626119393497654 a26.48678110843418,26.48678110843418 0 0,0 0.1667487288288938,-0.42435732671622733 l 5.089218186747569 2.050518270961756" fill="red" stroke="none" /><path d="M 80.52162464483688 92.15188598940014 l -21.156890577351696 -8.524411627421959 a43.80963858757433,43.80963858757433 0 0,0 0.2878466681161313,-0.6970435386361172 l 21.007022222349367 8.887329736511386" fill="red" stroke="none" /><path d="M 80.65960295795068 91.81776055985345 l -8.360907171022003 -3.5372047565209344 a30.078358123141072,30.078358123141072 0 0,0 0.20583521404639243,-0.4750960532798335 l 8.298781247132931 3.6805999543873673" fill="red" stroke="none" /><path d="M 80.803312248108 91.48605970444005 l -14.498014337122482 -6.430027412321025 a36.8599392256909,36.8599392256909 0 0,0 0.2622280722471377,-0.5777847975483944 l 14.385183947911994 6.67863421871149" fill="red" stroke="none" /><path d="M 81.10775173730289 90.83032412892265 l -26.57094543715431 -12.896662898923957 a50.53538649404665,50.53538649404665 0 0,0 0.38657161103799675,-0.7793047789331471 l 26.3450138131629 13.352127266356066" fill="red" stroke="none" /><path d="M 81.26839172434947 90.50648371742162 l -8.31096452518718 -4.2121464362651295 a30.31741965028198,30.31741965028198 0 0,0 0.2399271027049076,-0.46346279516290645 l 8.237227989322157 4.354581953688371" fill="red" stroke="none" /><path d="M 81.43458229118936 90.18545643968196 l -18.070343106735884 -9.552824092225285 a41.44000362358473,41.44000362358473 0 0,0 0.33880538050127035,-0.6277549144492163 l 17.90322962701614 9.862459990006974" fill="red" stroke="none" /><path d="M 81.6062741919709 89.86733742301443 l -4.577759063485228 -2.5217777210088483 a26.22639846524332,26.22639846524332 0 0,0 0.22122886116846563,-0.39354145863901085 l 4.533672561024332 2.600202689582644" fill="red" stroke="none" /><line stroke="#e1ed5e" stroke-width="0.3" x1="26.266209847984243" x2="21.928928074336255" y1="57.711370442889674" y2="55.22380399835377" /><path d="M 25.398753493254645 57.213857153982495 a86.0,86.0 0 0,1 29.58750427330803,-30.492523968695096" fill="none" id="id23" stroke="none" /><text fill="#e1ed5e" style="font-size:6.75px; font-family:Arial;" text-anchor="middle"><textPath startOffset="21.46611528233685" xlink:href="#id23">November</textPath></text><path d="M 81.78341655067845 89.55222093294921 l -6.889590292687852 -3.9513950264467015 a28.942290416254394,28.942290416254394 0 0,0 0.25157786257892717,-0.4300281173097153 l 6.8205527556386 4.069402556110309" fill="red" stroke="none" /><path d="M 81.96595687620814 89.24020034530311 l -16.133625634530773 -9.625937918625366 a39.78703161567623,39.78703161567623 0 0,0 0.35596927017487506,-0.5851198843499914 l 15.96554056606968 9.902225576182433" fill="red" stroke="none" /><path d="M 82.34701348167596 88.62581576622439 l -16.562719969107956 -10.671702952104978 a40.703018466038486,40.703018466038486 0 0,0 0.3845531340357495,-0.5857008058104896 l 16.376570199714287 10.955221821893135" fill="red" stroke="none" /><path d="M 82.54541684631803 88.32363383020206 l -3.971222388587289 -2.6565771489686565 a25.77786661681125,25.77786661681125 0 0,0 0.2498925224017757,-0.3666864415069246 l 3.924905400516773 2.724541613745997" fill="red" stroke="none" /><path d="M 82.7489923806493 88.02491185347247 l -37.32341752002795 -25.90870194913326 a66.43454998196142,66.43454998196142 0 0,0 0.6601929614401828,-0.9337961246218298 l 36.87191193878389 26.547324574086876" fill="red" stroke="none" /><path d="M 83.17141714833178 87.43820079747576 l -18.68660399782106 -13.948730517997554 a44.31858169004063,44.31858169004063 0 0,0 0.4615971481311982,-0.6074077391311464 l 18.443730909465753 14.268323033009725" fill="red" stroke="none" /><path d="M 84.5562425177563 85.77008943001954 l -13.760827833065386 -12.679255657734533 a39.71159818629772,39.71159818629772 0 0,0 0.46752403659197955,-0.49872204506556495 l 13.54053647450295 12.914247119678148" fill="red" stroke="none" /><path d="M 84.80347519578584 85.50635884689758 l -2.9524993824962436 -2.815937663773642 a25.080043814703423,25.080043814703423 0 0,0 0.30064491885963895,-0.3098410163193204 l 2.9035901999334865 2.866342875643086" fill="red" stroke="none" /><path d="M 86.37877921826538 84.01681056812374 l -12.014311556137462 -14.097636369922425 a39.52260870899393,39.52260870899393 0 0,0 0.5215901487338996,-0.4368167494349868 l 11.769863870444453 14.302354276751224" fill="red" stroke="none" /><path d="M 88.09926311788651 82.69761687909137 l -6.224492006265539 -9.04973754921914 a31.98371751484034,31.98371751484034 0 0,0 0.4562938868035003,-0.3080916692217492 l 6.067793425055499 9.155541130739554" fill="red" stroke="none" /><line stroke="#e1ed5e" stroke-width="0.3" x1="56.762969772571076" x2="54.21961505331055" y1="26.818313649435495" y2="22.513508569990535" /><path d="M 56.25429882871897 25.957352633546506 a86.0,86.0 0 0,1 42.265352541879196,-11.944610805530505" fill="none" id="id24" stroke="none" /><text fill="#e1ed5e" style="font-size:6.75px; font-family:Arial;" text-anchor="middle"><textPath startOffset="22.20632615414155" xlink:href="#id24">December</textPath></text></svg>