<?xml version="1.0" encoding="utf-8" ?>
<svg baseProfile="full" height="200mm" version="1.1" viewBox="0,0,200,200" width="200mm" xmlns="http://www.w3.org/2000/svg" xmlns:ev="http://www.w3.org/2001/xml-events" xmlns:xlink="http://www.w3.org/1999/xlink"><defs /><rect fill="#1a1a1a" height="200" width="200" x="0" y="0" /><text alignment-baseline="middle" fill="#e1ed5e" style="dominant-baseline: central; font-size:9.0px; font-family:Arial;" text-anchor="middle" x="100.0" y="100.0">2025</text><line stroke="#e1ed5e" stroke-width="0.3" x1="100.0" x2="100.0" y1="15.0" y2="10.0" /><path d="M 100.0 14.0 a86.0,86.0 0 0,1 42.46469731375804,11.215312516191453" fill="none" id="id49" stroke="none" /><text fill="#e1ed5e" style="font-size:6.75px; font-family:Arial;" text-anchor="middle"><textPath startOffset="22.20632615414155" xlink:href="#id49">January</textPath></text><path d="M 108.76106565485865 80.91482961587045 l 9.892433593584377 -21.549750690721304 a44.71185351750723,44.71185351750723 0 0,0 0.6966996516242419,0.3271098281599938 l -10.261911456508217 21.376275879921305" fill="red" stroke="none" /><line stroke="#e1ed5e" stroke-width="0.3" x1="143.23703022742887" x2="145.7803849466894" y1="26.81831364943548" y2="22.513508569990506" /><path d="M 143.74570117128098 25.957352633546492 a86.0,86.0 0 0,1 28.547481713284135,27.462654790039103" fill="none" id="id50" stroke="none" /><text fill="#e1ed5e" style="font-size:6.75px; font-family:Arial;" text-anchor="middle"><textPath startOffset="19.985693538727396" xlink:href="#id50">February</textPath></text><path d="M 115.4437574822437 85.77008943001954 l 12.762308423730135 -11.75921777747342 a38.35383874076454,38.35383874076454 0 0,0 0.44318108939207496,0.48937162800481177 l -12.962833153738245 11.537793362199059" fill="red" stroke="none" /><path d="M 117.2510076193507 88.02491185347247 l 20.309972028564186 -14.09852170158156 a45.72373915836813,45.72373915836813 0 0,0 0.44324926813277393,0.6504136068979072 l -20.549645762365692 13.746830071413246" fill="red" stroke="none" /><line stroke="#e1ed5e" stroke-width="0.3" x1="172.23445277983987" x2="176.4835382374775" y1="55.19839476539836" y2="52.563006222186495" /><path d="M 173.08426987136738 54.67131705675599 a86.0,86.0 0 0,1 12.851231095245387,41.99856678651699" fill="none" id="id51" stroke="none" /><text fill="#e1ed5e" style="font-size:6.75px; font-family:Arial;" text-anchor="middle"><textPath startOffset="22.20632615414155" xlink:href="#id51">March</textPath></text><path d="M 119.196687751892 91.48605970444005 l 33.49194045245234 -14.854040711607876 a57.63813042081593,57.63813042081593 0 0,0 0.39443499089383083,0.9104103411911237 l -33.74266615318886 14.275331225830149" fill="red" stroke="none" /><path d="M 119.61058180528143 92.48833698450437 l 19.580133851948464 -7.500000191454015 a41.967394796016706,41.967394796016706 0 0,0 0.25259457784558487,0.676827886503163 l -19.706333018295673 7.1618491679215195" fill="red" stroke="none" /><path d="M 120.37134235888165 94.90015583598534 l 12.847971570169497 -3.2164131198250643 a34.244458721490524,34.244458721490524 0 0,0 0.13822889868593863,0.5730480251696011 l -12.901433269116254 2.994779862996057" fill="red" stroke="none" /><path d="M 120.6074358757038 95.95851677861258 l 54.232707488500914 -10.635994632578386 a76.26582075168648,76.26582075168648 0 0,0 0.2415602789389932,1.2904246692088006 l -54.407753491349766 9.700891885907023" fill="red" stroke="none" /><path d="M 120.94382443527127 98.46500227214037 l 35.858366078570505 -2.628102170426342 a56.95454545454546,56.95454545454546 0 0,0 0.0632450637910549,0.9783731439197985 l -35.89829173336597 2.0104699622535085" fill="red" stroke="none" /><line stroke="#e1ed5e" stroke-width="0.3" x1="184.98032266829074" x2="189.97916517819016" y1="98.17113171792111" y2="98.06355123074" /><path d="M 185.9800911702706 98.14961562048488 a86.0,86.0 0 0,1 -9.607161424134198,41.387399972396054" fill="none" id="id52" stroke="none" /><text fill="#e1ed5e" style="font-size:6.75px; font-family:Arial;" text-anchor="middle"><textPath startOffset="21.466115282336823" xlink:href="#id52">April</textPath></text><path d="M 120.64145759157962 103.86396538481128 l 56.70819974592125 10.61545774473745 a78.69322197237392,78.69322197237392 0 0,0 -0.2606996536656664,1.3293019174997536 l -56.51707015927992 -11.590023389305149" fill="red" stroke="none" /><line stroke="#e1ed5e" stroke-width="0.3" x1="174.80103733775053" x2="179.2010983576182" y1="140.37084112569926" y2="142.7455964860345" /><path d="M 175.68104954172406 140.8457921977663 a86.0,86.0 0 0,1 -30.038265399797805,32.042727171017184" fill="none" id="id53" stroke="none" /><text fill="#e1ed5e" style="font-size:6.75px; font-family:Arial;" text-anchor="middle"><textPath startOffset="22.206326154141568" xlink:href="#id53">May</textPath></text><path d="M 114.81725581225074 114.88116024355365 l 29.930412492794098 30.059497528056312 a63.419370382267914,63.419370382267914 0 0,0 -0.780209398026479,0.7635991082796061 l -29.408553142391824 -30.57024673925849" fill="red" stroke="none" /><path d="M 114.0293411484842 115.62618273729858 l 25.152615217865428 28.015525287713746 a58.65001606167684,58.65001606167684 0 0,0 -0.7570254931270934,0.6679869798398411 l -24.666647371831747 -28.444335409325877" fill="red" stroke="none" /><path d="M 112.63410532772338 116.77436683061366 l 37.90231598317012 50.32310049184099 a84.0,84.0 0 0,0 -1.1624601183257428,0.8599602050409239 l -37.03047089442582 -50.96807064562168" fill="red" stroke="none" /><line stroke="#e1ed5e" stroke-width="0.3" x1="143.8653032363475" x2="146.44561519142675" y1="172.8068346515853" y2="177.08958963109032" /><path d="M 144.38136562736335 173.6633856474863 a86.0,86.0 0 0,1 -40.68145358897372,12.25698825130547" fill="none" id="id54" stroke="none" /><text fill="#e1ed5e" style="font-size:6.75px; font-family:Arial;" text-anchor="middle"><textPath startOffset="21.466115282336833" xlink:href="#id54">June</textPath></text><path d="M 108.59647513512805 119.15986991738527 l 18.41444320358032 41.04220984016409 a65.98393832316094,65.98393832316094 0 0,0 -1.0402817992122146,0.4560289697106249 l -17.70524072971035 -41.35310336316917" fill="red" stroke="none" /><path d="M 101.26447882468166 120.96189622390904 l 2.3424473612169514 38.8319183661782 a59.9025056215869,59.9025056215869 0 0,0 -1.0297866314914992,0.05322820620605233 l -1.6736726613119726 -38.86648637914646" fill="red" stroke="none" /><line stroke="#e1ed5e" stroke-width="0.3" x1="102.19456741930631" x2="102.32365962044197" y1="184.97166512339345" y2="189.96999836594603" /><path d="M 102.22038585953345 185.97133177190398 a86.0,86.0 0 0,1 -42.740103519485714,-10.115201625700543" fill="none" id="id55" stroke="none" /><text fill="#e1ed5e" style="font-size:6.75px; font-family:Arial;" text-anchor="middle"><textPath startOffset="22.20632615414155" xlink:href="#id55">July</textPath></text><path d="M 95.16358092515715 120.4354850818985 l -2.7512020917767055 11.62474724248697 a32.94587214905236,32.94587214905236 0 0,0 -0.550740009485475,-0.13535849489367066 l 2.950895386005391 -11.575667489279269" fill="red" stroke="none" /><path d="M 93.76903079525671 120.05430185196036 l -5.003990688036694 16.105285778959495 a37.8647606810151,37.8647606810151 0 0,0 -0.6207632797958726,-0.19874879913236976 l 5.280475312923508 -16.016764133167417" fill="red" stroke="none" /><path d="M 91.7346041902142 119.30500536409082 l -7.7144579265443705 18.018211720323123 a40.600224863475745,40.600224863475745 0 0,0 -0.6400902407877841,-0.2805967510431543 l 8.023468841989898 -17.882750415985516" fill="red" stroke="none" /><path d="M 91.07499286063937 119.00905698771935 l -11.755225432884192 25.03703881330355 a48.659331834243496,48.659331834243496 0 0,0 -0.7551171346834524,-0.3625021130407667 l 12.184455235567887 -24.83098242376322" fill="red" stroke="none" /><line stroke="#e1ed5e" stroke-width="0.3" x1="58.666819895761336" x2="56.23545636021788" y1="174.27360380694188" y2="178.64263932499728" /><path d="M 58.180547188652646 175.14741091055294 a86.0,86.0 0 0,1 -31.652253787137756,-30.449443065178592" fill="none" id="id56" stroke="none" /><text fill="#e1ed5e" style="font-size:6.75px; font-family:Arial;" text-anchor="middle"><textPath startOffset="22.20632615414155" xlink:href="#id56">August</textPath></text><line stroke="#e1ed5e" stroke-width="0.3" x1="26.63291911575756" x2="22.317208475507996" y1="142.92168965132927" y2="145.44649492493687" /><path d="M 25.769776987707644 143.4266507060508 a86.0,86.0 0 0,1 -11.730757126820373,-40.83630448921669" fill="none" id="id57" stroke="none" /><text fill="#e1ed5e" style="font-size:6.75px; font-family:Arial;" text-anchor="middle"><textPath startOffset="21.46611528233685" xlink:href="#id57">September</textPath></text><line stroke="#e1ed5e" stroke-width="0.3" x1="15.007084014347285" x2="10.007500721073583" y1="101.09737516637583" y2="101.16192664675087" /><path d="M 14.007167355692545 101.11028546245083 a86.0,86.0 0 0,1 10.666146001902534,-42.60595125391555" fill="none" id="id58" stroke="none" /><text fill="#e1ed5e" style="font-size:6.75px; font-family:Arial;" text-anchor="middle"><textPath startOffset="22.20632615414155" xlink:href="#id58">October</textPath></text><line stroke="#e1ed5e" stroke-width="0.3" x1="26.266209847984243" x2="21.928928074336255" y1="57.711370442889674" y2="55.22380399835377" /><path d="M 25.398753493254645 57.213857153982495 a86.0,86.0 0 0,1 29.58750427330803,-30.492523968695096" fill="none" id="id59" stroke="none" /><text fill="#e1ed5e" style="font-size:6.75px; font-family:Arial;" text-anchor="middle"><textPath startOffset="21.46611528233685" xlink:href="#id59">November</textPath></text><line stroke="#e1ed5e" stroke-width="0.3" x1="56.762969772571076" x2="54.21961505331055" y1="26.818313649435495" y2="22.513508569990535" /><path d="M 56.25429882871897 25.957352633546506 a86.0,86.0 0 0,1 42.265352541879196,-11.944610805530505" fill="none" id="id60" stroke="none" /><text fill="#e1ed5e" style="font-size:6.75px; font-family:Arial;" text-anchor="middle"><textPath startOffset="22.20632615414155" xlink:href="#id60">December</textPath></text></svg>