<?xml version="1.0" encoding="utf-8" ?>
<svg baseProfile="full" height="200mm" version="1.1" viewBox="0,0,200,200" width="200mm" xmlns="http://www.w3.org/2000/svg" xmlns:ev="http://www.w3.org/2001/xml-events" xmlns:xlink="http://www.w3.org/1999/xlink"><defs /><rect fill="#1a1a1a" height="200" width="200" x="0" y="0" /><text alignment-baseline="middle" fill="#e1ed5e" style="dominant-baseline: central; font-size:9.0px; font-family:Arial;" text-anchor="middle" x="100.0" y="100.0">2025</text><line stroke="#e1ed5e" stroke-width="0.3" x1="100.0" x2="100.0" y1="15.0" y2="10.0" /><path d="M 100.0 14.0 a86.0,86.0 0 0,1 42.46469731375804,11.215312516191453" fill="none" id="id49" stroke="none" /><text fill="#e1ed5e" style="font-size:6.75px; font-family:Arial;" text-anchor="middle"><textPath startOffset="22.20632615414155" xlink:href="#id49">January</textPath></text><path d="M 108.76106565485865 80.91482961587045 l 9.11983389517953 -19.866713779040776 a42.85995623632385,42.85995623632385 0 0,0 0.667843406822421,0.3135614343055395 l -9.460455513301548 19.706787362095234" fill="red" stroke="none" /><line stroke="#e1ed5e" stroke-width="0.3" x1="143.23703022742887" x2="145.7803849466894" y1="26.81831364943548" y2="22.513508569990506" /><path d="M 143.74570117128098 25.957352633546492 a86.0,86.0 0 0,1 28.547481713284135,27.462654790039103" fill="none" id="id50" stroke="none" /><text fill="#e1ed5e" style="font-size:6.75px; font-family:Arial;" text-anchor="middle"><textPath startOffset="19.985693538727396" xlink:href="#id50">February</textPath></text><path d="M 115.4437574822437 85.77008943001954 l 11.76557131694599 -10.840822114525023 a36.998502821605435,36.998502821605435 0 0,0 0.42752009511181466,0.47207836696423344 l -11.950435052673841 10.636690960291242" fill="red" stroke="none" /><path d="M 117.2510076193507 88.02491185347247 l 18.723761909948262 -12.997426252059379 a43.79281354370609,43.79281354370609 0 0,0 0.4245307341442618,0.6229464680155429 l -18.944717109761257 12.673201760773429" fill="red" stroke="none" /><line stroke="#e1ed5e" stroke-width="0.3" x1="172.23445277983987" x2="176.4835382374775" y1="55.19839476539836" y2="52.563006222186495" /><path d="M 173.08426987136738 54.67131705675599 a86.0,86.0 0 0,1 12.851231095245387,41.99856678651699" fill="none" id="id51" stroke="none" /><text fill="#e1ed5e" style="font-size:6.75px; font-family:Arial;" text-anchor="middle"><textPath startOffset="22.20632615414155" xlink:href="#id51">March</textPath></text><path d="M 119.196687751892 91.48605970444005 l 30.87621775411254 -13.693939178924921 a54.77669008407232,54.77669008407232 0 0,0 0.3748532975785477,0.8652130932191116 l -31.10736176153377 13.160426941119207" fill="red" stroke="none" /><path d="M 119.61058180528143 92.48833698450437 l 18.050924141756145 -6.914249695265533 a40.329839917079354,40.329839917079354 0 0,0 0.24273841485632497,0.6504182698678862 l -18.167267145114096 6.6025082883683135" fill="red" stroke="none" /><path d="M 120.37134235888165 94.90015583598534 l 11.844544166151879 -2.965211048786259 a33.21006564551422,33.21006564551422 0 0,0 0.13405353656783822,0.5557384535902045 l -11.893830502980537 2.760887363536648" fill="red" stroke="none" /><path d="M 120.6074358757038 95.95851677861258 l 49.9971295538188 -9.805322769317671 a71.94955660486008,71.94955660486008 0 0,0 0.2278891748847081,1.2173930846930974 l -50.15850445261337 8.943251607162011" fill="red" stroke="none" /><path d="M 120.94382443527127 98.46500227214037 l 33.05782538698967 -2.422847222284425 a54.146493147529654,54.146493147529654 0 0,0 0.06012686758970747,0.9301360288312601 l -33.094632845583796 1.8534521292001296" fill="red" stroke="none" /><line stroke="#e1ed5e" stroke-width="0.3" x1="184.98032266829074" x2="189.97916517819016" y1="98.17113171792111" y2="98.06355123074" /><path d="M 185.9800911702706 98.14961562048488 a86.0,86.0 0 0,1 -9.607161424134198,41.387399972396054" fill="none" id="id52" stroke="none" /><text fill="#e1ed5e" style="font-size:6.75px; font-family:Arial;" text-anchor="middle"><textPath startOffset="21.466115282336823" xlink:href="#id52">April</textPath></text><path d="M 120.64145759157962 103.86396538481128 l 52.279285707095156 9.786389813734854 a74.18737763445813,74.18737763445813 0 0,0 -0.24577242068518898,1.253188278126218 l -52.1030833534343 -10.684841818929018" fill="red" stroke="none" /><line stroke="#e1ed5e" stroke-width="0.3" x1="174.80103733775053" x2="179.2010983576182" y1="140.37084112569926" y2="142.7455964860345" /><path d="M 175.68104954172406 140.8457921977663 a86.0,86.0 0 0,1 -30.038265399797805,32.042727171017184" fill="none" id="id53" stroke="none" /><text fill="#e1ed5e" style="font-size:6.75px; font-family:Arial;" text-anchor="middle"><textPath startOffset="22.206326154141568" xlink:href="#id53">May</textPath></text><path d="M 114.81725581225074 114.88116024355365 l 27.59284535662829 27.71184884235381 a60.10641483358286,60.10641483358286 0 0,0 -0.7394521492750666,0.7237095621126008 l -27.11174325497743 -28.182708507388984" fill="red" stroke="none" /><path d="M 114.0293411484842 115.62618273729858 l 23.188194355437908 25.82751096513305 a55.709547391454564,55.709547391454564 0 0,0 -0.7190713731698389,0.6344968818274231 l -22.74018062936148 -26.222830988732763" fill="red" stroke="none" /><path d="M 112.63410532772338 116.77436683061366 l 34.94214267289045 46.39286311445711 a79.07969595761833,79.07969595761833 0 0,0 -1.0943689609530567,0.8095879946462783 l -34.138388741518824 -46.987461057843156" fill="red" stroke="none" /><line stroke="#e1ed5e" stroke-width="0.3" x1="143.8653032363475" x2="146.44561519142675" y1="172.8068346515853" y2="177.08958963109032" /><path d="M 144.38136562736335 173.6633856474863 a86.0,86.0 0 0,1 -40.68145358897372,12.25698825130547" fill="none" id="id54" stroke="none" /><text fill="#e1ed5e" style="font-size:6.75px; font-family:Arial;" text-anchor="middle"><textPath startOffset="21.466115282336833" xlink:href="#id54">June</textPath></text><path d="M 108.59647513512805 119.15986991738527 l 16.976274007821843 37.83681061818256 a62.470689853737184,62.470689853737184 0 0,0 -0.9848930404971434,0.43174816561551105 l -16.322460292666946 -38.123423337092525" fill="red" stroke="none" /><path d="M 101.26447882468166 120.96189622390904 l 2.159502072003268 35.79914305013785 a56.86421743636991,56.86421743636991 0 0,0 -0.9775552845171331,0.05052844217518243 l -1.5429587190726552 -35.831011299075236" fill="red" stroke="none" /><line stroke="#e1ed5e" stroke-width="0.3" x1="102.19456741930631" x2="102.32365962044197" y1="184.97166512339345" y2="189.96999836594603" /><path d="M 102.22038585953345 185.97133177190398 a86.0,86.0 0 0,1 -42.740103519485714,-10.115201625700543" fill="none" id="id55" stroke="none" /><text fill="#e1ed5e" style="font-size:6.75px; font-family:Arial;" text-anchor="middle"><textPath startOffset="22.20632615414155" xlink:href="#id55">July</textPath></text><path d="M 95.16358092515715 120.4354850818985 l -2.5363330318786446 10.71685373694929 a32.012898767707014,32.012898767707014 0 0,0 -0.5351439503929367,-0.13152536301895726 l 2.7204302670147915 -10.671607115616302" fill="red" stroke="none" /><path d="M 93.76903079525671 120.05430185196036 l -4.613178694221024 14.847461926230501 a36.54762178970402,36.54762178970402 0 0,0 -0.5991698128516351,-0.1918352529160359 l 4.8680698521636 -14.765853826654759" fill="red" stroke="none" /><path d="M 91.7346041902142 119.30500536409082 l -7.111958267484694 16.61098822883114 a39.069446043994006,39.069446043994006 0 0,0 -0.6159564684638683,-0.2700172144825413 l 7.396835410606306 -16.486106461054145" fill="red" stroke="none" /><path d="M 91.07499286063937 119.00905698771935 l -10.837141572304384 23.081644475488247 a46.499136243233906,46.499136243233906 0 0,0 -0.7215942595524164,-0.34640909579610235 l 11.232848499857043 -22.89168110319258" fill="red" stroke="none" /><line stroke="#e1ed5e" stroke-width="0.3" x1="58.666819895761336" x2="56.23545636021788" y1="174.27360380694188" y2="178.64263932499728" /><path d="M 58.180547188652646 175.14741091055294 a86.0,86.0 0 0,1 -31.652253787137756,-30.449443065178592" fill="none" id="id56" stroke="none" /><text fill="#e1ed5e" style="font-size:6.75px; font-family:Arial;" text-anchor="middle"><textPath startOffset="22.20632615414155" xlink:href="#id56">August</textPath></text><path d="M 89.1626897886671 117.98757091392108 l -19.7186589705949 32.72867248831641 a59.2098353103766,59.2098353103766 0 0,0 -0.8684695640084971,-0.5334849389483614 l 20.279107734535707 -32.38439908253967" fill="red" stroke="none" /><path d="M 87.36589467227662 116.77436683061367 l -29.001217640862972 38.50506629660666 a69.20488310491766,69.20488310491766 0 0,0 -0.9453758481317783,-0.7248738874532301 l 29.659722217488234 -38.00015306732606" fill="red" stroke="none" /><path d="M 82.6465618267979 111.8261652097733 l -16.819538938508888 11.462319123952462 a41.35390993896119,41.35390993896119 0 0,0 -0.3958098798502634,-0.5916820661864215 l 17.01435192376988 -11.17110014356022" fill="red" stroke="none" /><path d="M 82.24976979558568 111.22182372390057 l -53.25069061324296 33.6654711717017 a84.0,84.0 0 0,0 -0.7621414413281764,-1.2288146745389432 l 53.82229669423909 -32.743860165797486" fill="red" stroke="none" /><line stroke="#e1ed5e" stroke-width="0.3" x1="26.63291911575756" x2="22.317208475507996" y1="142.92168965132927" y2="145.44649492493687" /><path d="M 25.769776987707644 143.4266507060508 a86.0,86.0 0 0,1 -11.730757126820373,-40.83630448921669" fill="none" id="id57" stroke="none" /><text fill="#e1ed5e" style="font-size:6.75px; font-family:Arial;" text-anchor="middle"><textPath startOffset="21.46611528233685" xlink:href="#id57">September</textPath></text><path d="M 79.1416061653843 102.43462659150553 l -17.7581695885204 2.072763235725585 a38.87872855004031,38.87872855004031 0 0,0 -0.07186584585132909,-0.665388478158458 l 17.79121773587278 -1.7667784356823446" fill="red" stroke="none" /><line stroke="#e1ed5e" stroke-width="0.3" x1="15.007084014347285" x2="10.007500721073583" y1="101.09737516637583" y2="101.16192664675087" /><path d="M 14.007167355692545 101.11028546245083 a86.0,86.0 0 0,1 10.666146001902534,-42.60595125391555" fill="none" id="id58" stroke="none" /><text fill="#e1ed5e" style="font-size:6.75px; font-family:Arial;" text-anchor="middle"><textPath startOffset="22.20632615414155" xlink:href="#id58">October</textPath></text><path d="M 79.00486145842228 99.54816195383935 l -15.704644112351401 -0.33798089483052063 a36.70828054819763,36.70828054819763 0 0,0 0.019032903553175082,-0.6316094094648664 l 15.696499514342582 0.6082604517203815" fill="red" stroke="none" /><line stroke="#e1ed5e" stroke-width="0.3" x1="26.266209847984243" x2="21.928928074336255" y1="57.711370442889674" y2="55.22380399835377" /><path d="M 25.398753493254645 57.213857153982495 a86.0,86.0 0 0,1 29.58750427330803,-30.492523968695096" fill="none" id="id59" stroke="none" /><text fill="#e1ed5e" style="font-size:6.75px; font-family:Arial;" text-anchor="middle"><textPath startOffset="21.46611528233685" xlink:href="#id59">November</textPath></text><line stroke="#e1ed5e" stroke-width="0.3" x1="56.762969772571076" x2="54.21961505331055" y1="26.818313649435495" y2="22.513508569990535" /><path d="M 56.25429882871897 25.957352633546506 a86.0,86.0 0 0,1 42.265352541879196,-11.944610805530505" fill="none" id="id60" stroke="none" /><text fill="#e1ed5e" style="font-size:6.75px; font-family:Arial;" text-anchor="middle"><textPath startOffset="22.20632615414155" xlink:href="#id60">December</textPath></text></svg>