<?xml version="1.0" encoding="utf-8" ?>
<svg baseProfile="full" height="200mm" version="1.1" viewBox="0,0,200,200" width="200mm" xmlns="http://www.w3.org/2000/svg" xmlns:ev="http://www.w3.org/2001/xml-events" xmlns:xlink="http://www.w3.org/1999/xlink"><defs /><rect fill="#1a1a1a" height="200" width="200" x="0" y="0" /><text alignment-baseline="middle" fill="#e1ed5e" style="dominant-baseline: central; font-size:9.0px; font-family:Arial;" text-anchor="middle" x="100.0" y="100.0">2024</text><line stroke="#e1ed5e" stroke-width="0.3" x1="100.0" x2="100.0" y1="15.0" y2="10.0" /><path d="M 100.0 14.0 a86.0,86.0 0 0,1 42.35913384403234,11.155469271406648" fill="none" id="id1" stroke="none" /><text fill="#e1ed5e" style="font-size:6.75px; font-family:Arial;" text-anchor="middle"><textPath startOffset="22.145653131862478" xlink:href="#id1">January</textPath></text><line stroke="#e1ed5e" stroke-width="0.3" x1="143.13028292997686" x2="145.6673583964461" y1="26.7553504044142" y2="22.446841604673864" /><path d="M 143.63769802327073 25.89364864446614 a86.0,86.0 0 0,1 29.32050498858742,28.57503671076993" fill="none" id="id2" stroke="none" /><text fill="#e1ed5e" style="font-size:6.75px; font-family:Arial;" text-anchor="middle"><textPath startOffset="20.669276256404974" xlink:href="#id2">February</textPath></text><line stroke="#e1ed5e" stroke-width="0.3" x1="172.87174338648825" x2="177.1583165268699" y1="56.24261187166439" y2="53.66864786411523" /><path d="M 173.72905801456457 55.72781907015455 a86.0,86.0 0 0,1 12.242430191666344,42.057860355516425" fill="none" id="id3" stroke="none" /><text fill="#e1ed5e" style="font-size:6.75px; font-family:Arial;" text-anchor="middle"><textPath startOffset="22.145653131862474" xlink:href="#id3">March</textPath></text><line stroke="#e1ed5e" stroke-width="0.3" x1="184.99686870605535" x2="189.99668451229388" y1="99.2704041080226" y2="99.22748670261217" /><path d="M 185.99683186730306 99.26182062694052 a86.0,86.0 0 0,1 -10.086455211305974,41.156179273409016" fill="none" id="id4" stroke="none" /><text fill="#e1ed5e" style="font-size:6.75px; font-family:Arial;" text-anchor="middle"><textPath startOffset="21.40746469413373" xlink:href="#id4">April</textPath></text><line stroke="#e1ed5e" stroke-width="0.3" x1="174.33088141563837" x2="178.70328620479359" y1="141.23008692659167" y2="143.65538615756765" /><path d="M 175.20536237346943 141.71514677278685 a86.0,86.0 0 0,1 -30.301960400862466,31.631185727798858" fill="none" id="id5" stroke="none" /><text fill="#e1ed5e" style="font-size:6.75px; font-family:Arial;" text-anchor="middle"><textPath startOffset="22.145653131862474" xlink:href="#id5">May</textPath></text><line stroke="#e1ed5e" stroke-width="0.3" x1="143.1302829299769" x2="145.66735839644613" y1="173.24464959558577" y2="177.55315839532614" /><path d="M 143.63769802327073 174.10635135553383 a86.0,86.0 0 0,1 -40.68552437913181,11.842963189579606" fill="none" id="id6" stroke="none" /><text fill="#e1ed5e" style="font-size:6.75px; font-family:Arial;" text-anchor="middle"><textPath startOffset="21.407464694133747" xlink:href="#id6">June</textPath></text><path d="M 102.51750503828377 120.84855314841334 l 3.1261879918477224 25.88932117665232 a47.07738488323228,47.07738488323228 0 0,0 -0.8031493738182558,0.0899945625456184 l -2.681302716428667 -25.939171499704912" fill="red" stroke="none" /><line stroke="#e1ed5e" stroke-width="0.3" x1="101.45913802915013" x2="101.54496967792366" y1="184.9874750549273" y2="189.98673829345242" /><path d="M 101.47630435890484 185.9873277026323 a86.0,86.0 0 0,1 -42.54439059252881,-10.42667462771756" fill="none" id="id7" stroke="none" /><text fill="#e1ed5e" style="font-size:6.75px; font-family:Arial;" text-anchor="middle"><textPath startOffset="22.145653131862474" xlink:href="#id7">July</textPath></text><path d="M 99.63950707515114 120.99690560180557 l -0.2908341291005057 16.939629972119658 a37.94212643333133,37.94212643333133 0 0,0 -0.651135104877005,-0.01677093056640086 l 0.5815825480482546 -16.932141324203208" fill="red" stroke="none" /><path d="M 99.27912038922189 120.98762331915562 l -2.1626388323343173 62.962869957466836 a84.0,84.0 0 0,0 -1.440696957596645,-0.061869726296685634 l 3.2431615505318008 -62.916467662744324" fill="red" stroke="none" /><path d="M 95.70440661134978 120.55596938700252 l -3.773547829240301 18.05779240260625 a39.44785975866003,39.44785975866003 0 0,0 -0.6616675614732203,-0.14420736540085158 l 4.082977807332658 -17.990353579071677" fill="red" stroke="none" /><path d="M 91.92203290615298 119.3841803445677 l -9.117719837390757 21.87920842037686 a44.703007744491806,44.703007744491806 0 0,0 -0.7058071144027648,-0.30126708725321827 l 9.491962026963952 -21.719466683464237" fill="red" stroke="none" /><path d="M 90.93487009805054 118.94263497670748 l -14.489586373264686 30.277662714265414 a54.56612835444558,54.56612835444558 0 0,0 -0.8414610192875039,-0.41160075068292445 l 15.00720764181426 -30.024468213485267" fill="red" stroke="none" /><path d="M 89.97174638481275 118.45085714620012 l -6.031080144428217 11.096508171034241 a33.62958515939245,33.62958515939245 0 0,0 -0.5048534367332261,-0.28003369104836273 l 6.220677769317546 -10.99134156455273" fill="red" stroke="none" /><line stroke="#e1ed5e" stroke-width="0.3" x1="58.13341422392154" x2="55.67067388415222" y1="173.97424548756322" y2="178.32567169271397" /><path d="M 57.64086615596768 174.84453072859336 a86.0,86.0 0 0,1 -31.369924170532247,-30.572349798747897" fill="none" id="id8" stroke="none" /><text fill="#e1ed5e" style="font-size:6.75px; font-family:Arial;" text-anchor="middle"><textPath startOffset="22.145653131862474" xlink:href="#id8">August</textPath></text><path d="M 89.03521579738668 117.91015095944536 l -8.98690573705617 14.679435129295058 a38.21192291529087,38.21192291529087 0 0,0 -0.5565036540675395,-0.3472994389704379 l 9.237573519913422 -14.522999893483073" fill="red" stroke="none" /><path d="M 88.72937992617639 117.7192867562869 l -8.328183270815808 13.093287376196072 a36.51750015008705,36.51750015008705 0 0,0 -0.5260508794980067,-0.3409798245241914 l 8.551719782570824 -12.948393709967986" fill="red" stroke="none" /><path d="M 87.54013794807813 116.9041958592261 l -33.5225169339934 45.479732406751815 a77.49924956474754,77.49924956474754 0 0,0 -1.064127474935883,-0.7985410955775688 l 34.298297397840045 -44.89757228391023" fill="red" stroke="none" /><path d="M 86.13680546590413 115.77377054828092 l -13.6698294505421 15.553756578735545 a41.70709011226511,41.70709011226511 0 0,0 -0.5337216067902293,-0.4772571518825663 l 13.9348160841557 -15.316803896969596" fill="red" stroke="none" /><path d="M 85.60350026404147 115.28858382429668 l -11.304353657912403 12.004831844424832 a37.48952392387585,37.48952392387585 0 0,0 -0.46474069377121063,-0.4452110717730142 l 11.508766837548928 -11.809008642346235" fill="red" stroke="none" /><path d="M 85.08716467003676 114.78537596483092 l -10.44384913664713 10.354586005187468 a35.70684997298433,35.70684997298433 0 0,0 -0.4278245115490819,-0.43898563813172764 l 10.620060449347022 -10.173777674988003" fill="red" stroke="none" /><path d="M 84.3458050057657 113.99807769240083 l -11.479617689534251 10.265144924816958 a36.39983190250345,36.39983190250345 0 0,0 -0.4125122507887084,-0.469363217568118 l 11.654141004281552 -10.06656942943754" fill="red" stroke="none" /><path d="M 84.1078160697243 113.72728997021213 l -4.452075860797858 3.8455970921734526 a26.882992135438556,26.882992135438556 0 0,0 -0.29866420068539823,-0.3518256774269478 l 4.5174346249903685 -3.7686046322969506" fill="red" stroke="none" /><path d="M 82.98947788004972 112.3143062007846 l -9.706730668795549 7.026924442484102 a32.9832502851654,32.9832502851654 0 0,0 -0.328081094570401,-0.4614871462343733 l 9.82592686189591 -6.859260069540224" fill="red" stroke="none" /><path d="M 82.78059297857968 112.02048342749411 l -10.534744380918173 7.354069747360467 a33.84769166116347,33.84769166116347 0 0,0 -0.32850033074549795,-0.4792917999090048 l 10.659434448478995 -7.17214321238141" fill="red" stroke="none" /><line stroke="#e1ed5e" stroke-width="0.3" x1="26.387840678322732" x2="22.057713659400548" y1="142.50000000000003" y2="145.00000000000006" /><path d="M 25.521815274538298 143.00000000000003 a86.0,86.0 0 0,1 -11.493303480769221,-40.785679425670985" fill="none" id="id9" stroke="none" /><text fill="#e1ed5e" style="font-size:6.75px; font-family:Arial;" text-anchor="middle"><textPath startOffset="21.40746469413373" xlink:href="#id9">September</textPath></text><path d="M 81.81346652052679 110.50000000000001 l -24.65778183949228 14.23617698264995 a49.472353965299874,49.472353965299874 0 0,0 -0.41831616276617,-0.7391245773272721 l 24.898531367279826 -13.810795635223556" fill="red" stroke="none" /><path d="M 79.83685265289637 105.86919833188381 l -22.915400214858806 6.670339029924258 a44.86648255988473,44.86648255988473 0 0,0 -0.20891011047691949,-0.7413482824106876 l 23.026528817410302 -6.275982823610574" fill="red" stroke="none" /><path d="M 79.56144815229197 104.8234425847677 l -12.101736448539862 2.855976850535448 a33.434171819655404,33.434171819655404 0 0,0 -0.12703256019158352,-0.5597288992844852 l 12.148979870289113 -2.6478136173119364" fill="red" stroke="none" /><path d="M 79.48165901384964 104.47187691870673 l -20.54544091421036 4.4777832218952724 a42.02773608693042,42.02773608693042 0 0,0 -0.14758197466283893,-0.7062331740379181 l 20.619280599697564 -4.124433596571945" fill="red" stroke="none" /><path d="M 79.2786578344484 103.40968896794605 l -24.755640817342684 4.073531275867584 a46.08855135978868,46.08855135978868 0 0,0 -0.12175828852142367,-0.781775555810289 l 24.821920598002375 -3.6479675381258447" fill="red" stroke="none" /><path d="M 79.13060592940153 102.33845913500099 l -4.273191253534321 0.47881999298253086 a25.299933961697786,25.299933961697786 0 0,0 -0.04465752487295147,-0.43202104310501455 l 4.280781170888939 -0.4053944275945849" fill="red" stroke="none" /><path d="M 79.03789590574601 101.26102812881392 l -14.320392018763739 0.8614792231784343 a35.34628084288887,35.34628084288887 0 0,0 -0.031236704336457727,-0.6059837191746522 l 14.333070312556769 -0.6155237106270512" fill="red" stroke="none" /><path d="M 79.00696218219943 100.54070618675478 l -10.634523209857793 0.27390759463509284 a31.638050069040045,31.638050069040045 0 0,0 -0.009323535092242062,-0.5430491771481438 l 10.637658176548701 -0.09131150151789669" fill="red" stroke="none" /><line stroke="#e1ed5e" stroke-width="0.3" x1="15.003131293944662" x2="10.003315487706104" y1="100.72959589197737" y2="100.7725132973878" /><path d="M 14.003168132696942 100.73817937305945 a86.0,86.0 0 0,1 10.791469493833604,-42.45332614584628" fill="none" id="id10" stroke="none" /><text fill="#e1ed5e" style="font-size:6.75px; font-family:Arial;" text-anchor="middle"><textPath startOffset="22.145653131862435" xlink:href="#id10">October</textPath></text><path d="M 79.00077361379809 100.18025310272382 l -12.458507227626585 0.1069413006834591 a33.45896620039623,33.45896620039623 0 0,0 0.0,-0.5743888068145487 l 12.458507227626585 0.10694130068345452" fill="red" stroke="none" /><path d="M 79.06263194458094 98.37931529534042 l -10.36288895788917 -0.8021531448309128 a31.39388845530408,31.39388845530408 0 0,0 0.04620339817069495,-0.5369535225800395 l 10.347591937020733 0.9799277147866331" fill="red" stroke="none" /><path d="M 79.13060592940154 97.66154086499901 l -15.442290831771404 -1.7303408972363308 a36.53893258089692,36.53893258089692 0 0,0 0.07519697316404753,-0.6227388099605368 l 15.410311772347688 1.9951733841203039" fill="red" stroke="none" /><path d="M 79.22317932658666 96.9465228501225 l -12.253796379636949 -1.8008860851531758 a33.38542354565648,33.38542354565648 0 0,0 0.08819873726880817,-0.5662991627708034 l 12.221076150229873 2.0109734298554294" fill="red" stroke="none" /><path d="M 79.407916724674 95.88100663000787 l -14.599606138790998 -2.9203301135748982 a35.88881551299754,35.88881551299754 0 0,0 0.126024924368115,-0.603074884637611 l 14.547323503598516 3.1705214494979184" fill="red" stroke="none" /><path d="M 79.56144815229197 95.17655741523228 l -11.425645791873766 -2.6964212964616707 a32.7395089151708,32.7395089151708 0 0,0 0.13378372574535777,-0.5458832548494124 l 11.37767453961211 2.8921603759192007" fill="red" stroke="none" /><path d="M 79.73907114497095 94.47779374421319 l -16.50075086776565 -4.497353024589379 a38.10265954253467,38.10265954253467 0 0,0 0.17741597647799312,-0.6295867114038463 l 16.421116399213076 4.779947659896239" fill="red" stroke="none" /><path d="M 80.05021161711548 93.44210830539832 l -29.372351577794387 -9.655275372654735 a51.91859278381462,51.91859278381462 0 0,0 0.28558830276087616,-0.8442910713966937 l 29.202277853461144 10.158068118525591" fill="red" stroke="none" /><path d="M 80.28708602549916 92.7611449362534 l -8.292907437753026 -3.0452704798799517 a29.834363931080027,29.834363931080027 0 0,0 0.18066741237841444,-0.47924177591357126 l 8.239409341560176 3.1871805359876677" fill="red" stroke="none" /><path d="M 80.68587082218212 91.75594674310238 l -14.515647783757148 -6.195866885114301 a36.78267395089152,36.78267395089152 0 0,0 0.2528653260631172,-0.5786053514784116 l 14.407148575677052 6.4441343063685785" fill="red" stroke="none" /><path d="M 80.9802524753101 91.09779779509293 l -12.865191532729847 -6.02155923891985 a35.20465870204718,35.20465870204718 0 0,0 0.2608845290705177,-0.5451483275700609 l 12.759927745699425 6.2415200685549985" fill="red" stroke="none" /><path d="M 81.63589988554816 89.8137432299009 l -17.69783140845234 -9.816688750163753 a41.2380980968962,41.2380980968962 0 0,0 0.3486909672373593,-0.6161035281852455 l 17.526707076193613 10.119049048448103" fill="red" stroke="none" /><line stroke="#e1ed5e" stroke-width="0.3" x1="26.387840678322718" x2="22.05771365940052" y1="57.49999999999999" y2="54.99999999999999" /><path d="M 25.521815274538284 56.99999999999999 a86.0,86.0 0 0,1 29.574782752854787,-30.34633250058573" fill="none" id="id11" stroke="none" /><text fill="#e1ed5e" style="font-size:6.75px; font-family:Arial;" text-anchor="middle"><textPath startOffset="21.40746469413373" xlink:href="#id11">November</textPath></text><path d="M 82.576782715395 88.27688183743585 l -8.960382241641431 -6.028945061330295 a31.79984390946749,31.79984390946749 0 0,0 0.308625455067644,-0.45029376232715923 l 8.855567049758474 6.181873558727489" fill="red" stroke="none" /><path d="M 83.42222388311158 87.10902102172516 l -18.912949839383007 -14.706824189058636 a44.95809569550339,44.95809569550339 0 0,0 0.47898262959586746,-0.6051789053663786 l 18.65770077914558 15.029323038339697" fill="red" stroke="none" /><line stroke="#e1ed5e" stroke-width="0.3" x1="56.869717070023135" x2="54.33264160355391" y1="26.7553504044142" y2="22.446841604673864" /><path d="M 56.362301976729285 25.89364864446614 a86.0,86.0 0 0,1 42.16139366436587,-11.88097634709845" fill="none" id="id12" stroke="none" /><text fill="#e1ed5e" style="font-size:6.75px; font-family:Arial;" text-anchor="middle"><textPath startOffset="22.145653131862474" xlink:href="#id12">December</textPath></text></svg>