<?xml version="1.0" encoding="utf-8" ?>
<svg baseProfile="full" height="200mm" version="1.1" viewBox="0,0,200,200" width="200mm" xmlns="http://www.w3.org/2000/svg" xmlns:ev="http://www.w3.org/2001/xml-events" xmlns:xlink="http://www.w3.org/1999/xlink"><defs /><rect fill="#1a1a1a" height="200" width="200" x="0" y="0" /><text alignment-baseline="middle" fill="#e1ed5e" style="dominant-baseline: central; font-size:9.0px; font-family:Arial;" text-anchor="middle" x="100.0" y="100.0">2021</text><line stroke="#e1ed5e" stroke-width="0.3" x1="100.0" x2="100.0" y1="15.0" y2="10.0" /><path d="M 100.0 14.0 a86.0,86.0 0 0,1 42.46469731375804,11.215312516191453" fill="none" id="id1" stroke="none" /><text fill="#e1ed5e" style="font-size:6.75px; font-family:Arial;" text-anchor="middle"><textPath startOffset="22.20632615414155" xlink:href="#id1">January</textPath></text><line stroke="#e1ed5e" stroke-width="0.3" x1="143.23703022742887" x2="145.7803849466894" y1="26.81831364943548" y2="22.513508569990506" /><path d="M 143.74570117128098 25.957352633546492 a86.0,86.0 0 0,1 28.547481713284135,27.462654790039103" fill="none" id="id2" stroke="none" /><text fill="#e1ed5e" style="font-size:6.75px; font-family:Arial;" text-anchor="middle"><textPath startOffset="19.985693538727396" xlink:href="#id2">February</textPath></text><line stroke="#e1ed5e" stroke-width="0.3" x1="172.23445277983987" x2="176.4835382374775" y1="55.19839476539836" y2="52.563006222186495" /><path d="M 173.08426987136738 54.67131705675599 a86.0,86.0 0 0,1 12.851231095245387,41.99856678651699" fill="none" id="id3" stroke="none" /><text fill="#e1ed5e" style="font-size:6.75px; font-family:Arial;" text-anchor="middle"><textPath startOffset="22.20632615414155" xlink:href="#id3">March</textPath></text><path d="M 119.47837535516314 92.15188598940014 l 12.335515891423972 -4.970154508794802 a34.29914990324068,34.29914990324068 0 0,0 0.21593185003727947,0.5495230055320947 l -12.419241291342953 4.757082498366922" fill="red" stroke="none" /><path d="M 119.7369772167798 92.82701384747503 l 13.165718406588278 -4.78480137972763 a35.008228489178094,35.008228489178094 0 0,0 0.20095876622269881,0.5681374935100623 l -13.246130253620786 4.557466259790953" fill="red" stroke="none" /><path d="M 120.53481517161879 95.60439243477599 l 13.703083261100865 -2.933231974380672 a35.01350565262639,35.01350565262639 0 0,0 0.12108121109418879,0.5904349864121425 l -13.75154376811005 2.6969213318051173" fill="red" stroke="none" /><path d="M 120.73433829027371 96.67025291283417 l 14.842579729045834 -2.3835839816504 a36.03275242963386,36.03275242963386 0 0,0 0.09307449821278023,0.6132446524432142 l -14.881410120697915 2.127740216815104" fill="red" stroke="none" /><line stroke="#e1ed5e" stroke-width="0.3" x1="184.98032266829074" x2="189.97916517819016" y1="98.17113171792111" y2="98.06355123074" /><path d="M 185.9800911702706 98.14961562048488 a86.0,86.0 0 0,1 -9.607161424134198,41.387399972396054" fill="none" id="id4" stroke="none" /><text fill="#e1ed5e" style="font-size:6.75px; font-family:Arial;" text-anchor="middle"><textPath startOffset="21.466115282336823" xlink:href="#id4">April</textPath></text><path d="M 119.12269723197855 108.67885076344098 l 12.625623882517253 5.730149054938848 a34.86509958906198,34.86509958906198 0 0,0 -0.2527311020886856,0.544360309884691 l -12.525118163588735 -5.94662943210237" fill="red" stroke="none" /><path d="M 118.97047184881838 109.00673069616215 l 17.112201363353655 8.124467884958028 a39.942925167821286,39.942925167821286 0 0,0 -0.3002314599534646,0.6185657331251446 l -16.96981664678548 -8.417822574048447" fill="red" stroke="none" /><path d="M 118.81262510543309 109.33194174019688 l 12.301242574927379 6.101991529512756 a34.73152830217567,34.73152830217567 0 0,0 -0.2702796454998758,0.5332873820078674 l -12.194384259641234 -6.312833123223318" fill="red" stroke="none" /><line stroke="#e1ed5e" stroke-width="0.3" x1="174.80103733775053" x2="179.2010983576182" y1="140.37084112569926" y2="142.7455964860345" /><path d="M 175.68104954172406 140.8457921977663 a86.0,86.0 0 0,1 -30.038265399797805,32.042727171017184" fill="none" id="id5" stroke="none" /><text fill="#e1ed5e" style="font-size:6.75px; font-family:Arial;" text-anchor="middle"><textPath startOffset="22.206326154141568" xlink:href="#id5">May</textPath></text><path d="M 118.48025628344425 109.97397251340804 l 21.43738515721555 11.569963480915524 a45.360327118668266,45.360327118668266 0 0,0 -0.37675767259486576,0.6839246124233295 l -21.235051075169178 -11.937258611736658" fill="red" stroke="none" /><path d="M 117.35343817320211 111.8261652097733 l 24.677698428512006 16.817562934774564 a50.86334245850064,50.86334245850064 0 0,0 -0.499282060623663,0.7192530465440823 l -24.384555460726205 -17.239857243505668" fill="red" stroke="none" /><path d="M 116.93607887273984 112.41649034213515 l 19.671937630171655 14.422253547086635 a45.39234567444912,45.39234567444912 0 0,0 -0.46740873001816163,0.6261703767023318 l -19.4207676334584 -14.758736803298282" fill="red" stroke="none" /><path d="M 116.71984013943494 112.70617746262583 l 25.59622326120058 19.45175028095677 a53.14867391090848,53.14867391090848 0 0,0 -0.5598154449044217,0.7236369264203614 l -25.25760099907809 -19.889465201490385" fill="red" stroke="none" /><path d="M 116.498646956653 112.99209946851258 l 19.015657196497532 14.974155784114757 a45.203730292284405,45.203730292284405 0 0,0 -0.4866549393994717,0.6071768635185303 l -18.755084345043205 -15.299260481211537" fill="red" stroke="none" /><path d="M 116.0416608686014 113.55231037782055 l 26.07074997616675 22.025081963372404 a55.12899412249167,55.12899412249167 0 0,0 -0.6186457335616036,0.7196247518649758 l -25.687761733034367 -22.470583814398907" fill="red" stroke="none" /><line stroke="#e1ed5e" stroke-width="0.3" x1="143.8653032363475" x2="146.44561519142675" y1="172.8068346515853" y2="177.08958963109032" /><path d="M 144.38136562736335 173.6633856474863 a86.0,86.0 0 0,1 -40.68145358897372,12.25698825130547" fill="none" id="id6" stroke="none" /><text fill="#e1ed5e" style="font-size:6.75px; font-family:Arial;" text-anchor="middle"><textPath startOffset="21.466115282336833" xlink:href="#id6">June</textPath></text><path d="M 110.5260780823613 118.17145234162733 l 26.16136096940371 45.163062664739954 a73.193093767573,73.193093767573 0 0,0 -1.0956352037470891,0.6221302630099377 l -25.380076998735422 -45.60669609354452" fill="red" stroke="none" /><path d="M 110.21172684928248 118.3499491758327 l 27.106042987955043 48.708168415399776 a76.74247246801863,76.74247246801863 0 0,0 -1.1598242915308283,0.6324286794123363 l -26.263595884555567 -49.16753774657189" fill="red" stroke="none" /><path d="M 109.89434966115114 118.52300852407294 l 28.293057826254532 52.96685171189197 a81.04985013661013,81.04985013661013 0 0,0 -1.236238302267637,0.6467414515159707 l -27.3771286214604 -53.446022582352654" fill="red" stroke="none" /><path d="M 109.57404056367764 118.69057910512821 l 28.722121691032903 56.07173731538463 a84.0,84.0 0 0,0 -1.292584369268958,0.6481286363627916 l -27.752683414081186 -56.55783379265672" fill="red" stroke="none" /><path d="M 109.2508944713604 118.85261126421891 l 23.213794577779314 47.307927519569745 a73.69649196005557,73.69649196005557 0 0,0 -1.14365491155261,0.5490238573397738 l -22.39602699822647 -47.70050565340908" fill="red" stroke="none" /><path d="M 108.59647513512805 119.15986991738527 l 12.848145303625943 28.63601520711789 a52.386242283608475,52.386242283608475 0 0,0 -0.8259048453558355,0.3620524130979262 l -12.353319783612354 -28.852932173510272" fill="red" stroke="none" /><path d="M 107.93186726928326 119.44442032107085 l 19.61480561437091 48.08433020039581 a72.93114104379234,72.93114104379234 0 0,0 -1.1664777703251359,0.4641655781699482 l -18.784206768003905 -48.414842622971825" fill="red" stroke="none" /><line stroke="#e1ed5e" stroke-width="0.3" x1="102.19456741930631" x2="102.32365962044197" y1="184.97166512339345" y2="189.96999836594603" /><path d="M 102.22038585953345 185.97133177190398 a86.0,86.0 0 0,1 -42.740103519485714,-10.115201625700543" fill="none" id="id7" stroke="none" /><text fill="#e1ed5e" style="font-size:6.75px; font-family:Arial;" text-anchor="middle"><textPath startOffset="22.20632615414155" xlink:href="#id7">July</textPath></text><line stroke="#e1ed5e" stroke-width="0.3" x1="58.666819895761336" x2="56.23545636021788" y1="174.27360380694188" y2="178.64263932499728" /><path d="M 58.180547188652646 175.14741091055294 a86.0,86.0 0 0,1 -31.652253787137756,-30.449443065178592" fill="none" id="id8" stroke="none" /><text fill="#e1ed5e" style="font-size:6.75px; font-family:Arial;" text-anchor="middle"><textPath startOffset="22.20632615414155" xlink:href="#id8">August</textPath></text><line stroke="#e1ed5e" stroke-width="0.3" x1="26.63291911575756" x2="22.317208475507996" y1="142.92168965132927" y2="145.44649492493687" /><path d="M 25.769776987707644 143.4266507060508 a86.0,86.0 0 0,1 -11.730757126820373,-40.83630448921669" fill="none" id="id9" stroke="none" /><text fill="#e1ed5e" style="font-size:6.75px; font-family:Arial;" text-anchor="middle"><textPath startOffset="21.46611528233685" xlink:href="#id9">September</textPath></text><line stroke="#e1ed5e" stroke-width="0.3" x1="15.007084014347285" x2="10.007500721073583" y1="101.09737516637583" y2="101.16192664675087" /><path d="M 14.007167355692545 101.11028546245083 a86.0,86.0 0 0,1 10.666146001902534,-42.60595125391555" fill="none" id="id10" stroke="none" /><text fill="#e1ed5e" style="font-size:6.75px; font-family:Arial;" text-anchor="middle"><textPath startOffset="22.20632615414155" xlink:href="#id10">October</textPath></text><line stroke="#e1ed5e" stroke-width="0.3" x1="26.266209847984243" x2="21.928928074336255" y1="57.711370442889674" y2="55.22380399835377" /><path d="M 25.398753493254645 57.213857153982495 a86.0,86.0 0 0,1 29.58750427330803,-30.492523968695096" fill="none" id="id11" stroke="none" /><text fill="#e1ed5e" style="font-size:6.75px; font-family:Arial;" text-anchor="middle"><textPath startOffset="21.46611528233685" xlink:href="#id11">November</textPath></text><line stroke="#e1ed5e" stroke-width="0.3" x1="56.762969772571076" x2="54.21961505331055" y1="26.818313649435495" y2="22.513508569990535" /><path d="M 56.25429882871897 25.957352633546506 a86.0,86.0 0 0,1 42.265352541879196,-11.944610805530505" fill="none" id="id12" stroke="none" /><text fill="#e1ed5e" style="font-size:6.75px; font-family:Arial;" text-anchor="middle"><textPath startOffset="22.20632615414155" xlink:href="#id12">December</textPath></text></svg>