<?xml version="1.0" encoding="utf-8" ?>
<svg baseProfile="full" height="200mm" version="1.1" viewBox="0,0,200,200" width="200mm" xmlns="http://www.w3.org/2000/svg" xmlns:ev="http://www.w3.org/2001/xml-events" xmlns:xlink="http://www.w3.org/1999/xlink"><defs /><rect fill="#1a1a1a" height="200" width="200" x="0" y="0" /><text alignment-baseline="middle" fill="#e1ed5e" style="dominant-baseline: central; font-size:9.0px; font-family:Arial;" text-anchor="middle" x="100.0" y="100.0">2023</text><line stroke="#e1ed5e" stroke-width="0.3" x1="100.0" x2="100.0" y1="15.0" y2="10.0" /><path d="M 100.0 14.0 a86.0,86.0 0 0,1 42.46469731375804,11.215312516191453" fill="none" id="id25" stroke="none" /><text fill="#e1ed5e" style="font-size:6.75px; font-family:Arial;" text-anchor="middle"><textPath startOffset="22.20632615414155" xlink:href="#id25">January</textPath></text><line stroke="#e1ed5e" stroke-width="0.3" x1="143.23703022742887" x2="145.7803849466894" y1="26.81831364943548" y2="22.513508569990506" /><path d="M 143.74570117128098 25.957352633546492 a86.0,86.0 0 0,1 28.547481713284135,27.462654790039103" fill="none" id="id26" stroke="none" /><text fill="#e1ed5e" style="font-size:6.75px; font-family:Arial;" text-anchor="middle"><textPath startOffset="19.985693538727396" xlink:href="#id26">February</textPath></text><path d="M 116.15771136456269 86.58626213691792 l 27.990650542877074 -23.237155345078826 a57.37914108860722,57.37914108860722 0 0,0 0.6243438220051065,0.7653717025337691 l -28.38649285695859 22.75189947293696" fill="red" stroke="none" /><line stroke="#e1ed5e" stroke-width="0.3" x1="172.23445277983987" x2="176.4835382374775" y1="55.19839476539836" y2="52.563006222186495" /><path d="M 173.08426987136738 54.67131705675599 a86.0,86.0 0 0,1 12.851231095245387,41.99856678651699" fill="none" id="id27" stroke="none" /><text fill="#e1ed5e" style="font-size:6.75px; font-family:Arial;" text-anchor="middle"><textPath startOffset="22.20632615414155" xlink:href="#id27">March</textPath></text><path d="M 117.84615892207809 88.93136811851018 l 31.77467399523201 -19.70744355372 a58.390015230357065,58.390015230357065 0 0,0 0.5224076856957554,0.8587008774316001 l -32.10919747921399 19.157574903081322" fill="red" stroke="none" /><path d="M 118.73160827565052 90.50648371742162 l 20.46524230892681 -10.372153219713942 a43.94357655589708,43.94357655589708 0 0,0 0.3361474080342965,0.6776526626042672 l -20.640749729914514 10.018340968610726" fill="red" stroke="none" /><path d="M 119.85752413597 93.16781622104841 l 37.054046345967635 -12.748822695920342 a60.18590091781904,60.18590091781904 0 0,0 0.32862277504863047,0.9825402694990931 l -37.26800641478803 12.109109323498934" fill="red" stroke="none" /><path d="M 120.37134235888165 94.90015583598534 l 18.772159033710096 -4.699498148303515 a40.351466033166886,40.351466033166886 0 0,0 0.16288003719058178,0.675242908964223 l -18.8502718711615 4.3756700076798865" fill="red" stroke="none" /><path d="M 120.83666639777658 97.38593545837742 l 31.293273289483736 -3.9258984395926815 a52.53857371106551,52.53857371106551 0 0,0 0.10485109894884187,0.8983001843066357 l -31.356214741436165 3.386654516961193" fill="red" stroke="none" /><path d="M 120.98425023603335 99.18683210126433 l 36.48208112981874 -1.413729674405877 a57.50946281657637,57.50946281657637 0 0,0 0.02981812394469536,0.9895183676752874 l -36.50101094821908 0.7855411593055904" fill="red" stroke="none" /><line stroke="#e1ed5e" stroke-width="0.3" x1="184.98032266829074" x2="189.97916517819016" y1="98.17113171792111" y2="98.06355123074" /><path d="M 185.9800911702706 98.14961562048488 a86.0,86.0 0 0,1 -9.607161424134198,41.387399972396054" fill="none" id="id28" stroke="none" /><text fill="#e1ed5e" style="font-size:6.75px; font-family:Arial;" text-anchor="middle"><textPath startOffset="21.466115282336823" xlink:href="#id28">April</textPath></text><path d="M 120.89721153311464 102.0752229133903 l 48.613542776286266 4.827626772622922 a69.85266135552453,69.85266135552453 0 0,0 -0.12911997846894646,1.1954906389196005 l -48.52324049631627 -5.663713733427313" fill="red" stroke="none" /><path d="M 120.13307415673323 105.97154293290107 l 34.48712545436549 10.22900669216553 a56.97213365945244,56.97213365945244 0 0,0 -0.28695840258915606,0.9377966629634178 l -34.3059402792702 -10.821130327681004" fill="red" stroke="none" /><path d="M 119.41010516605496 108.01547362559984 l 13.545175787101437 5.593529676773604 a35.65467029135852,35.65467029135852 0 0,0 -0.23913930125950383,0.5652546675698612 l -13.446885504649625 -5.825858870009628" fill="red" stroke="none" /><path d="M 118.64920377521936 109.65438752849418 l 53.868841106598104 27.887017270143925 a81.6591936510305,81.6591936510305 0 0,0 -0.6569579022723495,1.2427167700496675 l -53.380830696100865 -28.81014905527973" fill="red" stroke="none" /><line stroke="#e1ed5e" stroke-width="0.3" x1="174.80103733775053" x2="179.2010983576182" y1="140.37084112569926" y2="142.7455964860345" /><path d="M 175.68104954172406 140.8457921977663 a86.0,86.0 0 0,1 -30.038265399797805,32.042727171017184" fill="none" id="id29" stroke="none" /><text fill="#e1ed5e" style="font-size:6.75px; font-family:Arial;" text-anchor="middle"><textPath startOffset="22.206326154141568" xlink:href="#id29">May</textPath></text><path d="M 118.48025628344425 109.97397251340804 l 24.59423971475991 13.273748325824942 a48.9476120941381,48.9476120941381 0 0,0 -0.40655325001115633,0.738012240144394 l -24.362110055297247 -13.69513108436714" fill="red" stroke="none" /><path d="M 118.30583269289576 110.29060199501025 l 14.268237376324556 8.020872607836486 a37.368170185402114,37.368170185402114 0 0,0 -0.32002813406108266,0.5579960269871956 l -14.128057246111094 -8.265288480681996" fill="red" stroke="none" /><path d="M 117.35343817320211 111.8261652097733 l 43.468098064080394 29.623000579463007 a73.6022595773164,73.6022595773164 0 0,0 -0.7224906200040465,1.0408016240125348 l -42.951746536914214 -30.366843465662562" fill="red" stroke="none" /><path d="M 116.498646956653 112.99209946851258 l 49.495940869959 38.97629840553772 a84.0,84.0 0 0,0 -0.9043283517805842,1.1282886656869988 l -48.81769460612357 -39.822514904802965" fill="red" stroke="none" /><path d="M 113.20401910651253 116.32954008644616 l 7.864440010001488 9.726030185568975 a33.50780075958644,33.50780075958644 0 0,0 -0.45162533050099013,0.35879847652877467 l -7.6958571867831465 -9.859962576102875" fill="red" stroke="none" /><path d="M 111.45004920935366 117.60387380957326 l 6.857199581267098 10.542598892681841 a33.57646919883741,33.57646919883741 0 0,0 -0.4872076756141181,0.3109589900102706 l -6.674710103606049 -10.65907231151592" fill="red" stroke="none" /><line stroke="#e1ed5e" stroke-width="0.3" x1="143.8653032363475" x2="146.44561519142675" y1="172.8068346515853" y2="177.08958963109032" /><path d="M 144.38136562736335 173.6633856474863 a86.0,86.0 0 0,1 -40.68145358897372,12.25698825130547" fill="none" id="id30" stroke="none" /><text fill="#e1ed5e" style="font-size:6.75px; font-family:Arial;" text-anchor="middle"><textPath startOffset="21.466115282336833" xlink:href="#id30">June</textPath></text><path d="M 108.59647513512805 119.15986991738527 l 4.646703103319951 10.356596814956598 a32.351253116637494,32.351253116637494 0 0,0 -0.5100395740872657,0.22358636059844536 l -4.467742854574931 -10.435047728849497" fill="red" stroke="none" /><path d="M 103.7750983002368 120.6578951692458 l 7.9959726799275375 43.75514284958748 a65.47974937975656,65.47974937975656 0 0,0 -1.1105085756834618,0.19307615046108523 l -7.241615132772026 -43.88629757856957" fill="red" stroke="none" /><path d="M 103.41894727170886 120.7198165907248 l 2.914712247194824 17.664005431248068 a38.90286667992332,38.90286667992332 0 0,0 -0.6616527990898956,0.10333655964076202 l -2.610223584496411 -17.711560298235934" fill="red" stroke="none" /><path d="M 102.70371172650421 120.8252237178851 l 2.763525263666565 21.285934924835644 a42.46457773885294,42.46457773885294 0 0,0 -0.7256844020084354,0.08787027493062322 l -2.3967134386067492 -21.330350728491617" fill="red" stroke="none" /><path d="M 102.34483914955558 120.86867818915974 l 4.829999573774997 42.9861923697379 a64.25669463020469,64.25669463020469 0 0,0 -1.1002196589947342,0.11404226618158127 l -4.089347318174661 -43.06296400437524" fill="red" stroke="none" /><path d="M 101.62511606390274 120.93702456842531 l 1.5856571887030124 20.42865999198088 a41.49010633911024,41.49010633911024 0 0,0 -0.7125179716726342,0.04913941099281157 l -1.233776456251448 -20.452927747489976" fill="red" stroke="none" /><line stroke="#e1ed5e" stroke-width="0.3" x1="102.19456741930631" x2="102.32365962044197" y1="184.97166512339345" y2="189.96999836594603" /><path d="M 102.22038585953345 185.97133177190398 a86.0,86.0 0 0,1 -42.740103519485714,-10.115201625700543" fill="none" id="id31" stroke="none" /><text fill="#e1ed5e" style="font-size:6.75px; font-family:Arial;" text-anchor="middle"><textPath startOffset="22.20632615414155" xlink:href="#id31">July</textPath></text><path d="M 100.54218724476979 120.99299961872073 l 1.1999612355567546 46.461413475741715 a67.47690662179092,67.47690662179092 0 0,0 -1.161374954974457,0.019994123075529332 l -0.40002659068962954 -46.4751850760964" fill="red" stroke="none" /><path d="M 99.45781275523022 120.99299961872073 l -0.6279784348620225 24.314756886656422 a45.32286494991611,45.32286494991611 0 0,0 -0.7797251766763494,-0.026855311641844522 l 1.046423963213015 -24.30034477658848" fill="red" stroke="none" /><path d="M 99.09653310690486 120.98055641714683 l -1.1260812712382693 26.15016866923432 a47.17440315382259,47.17440315382259 0 0,0 -0.8109772573334425,-0.04191826089181533 l 1.5760465969852007 -26.126910601580303" fill="red" stroke="none" /><path d="M 97.65516085044442 120.86867818915974 l -2.626075566101889 23.37163549140783 a44.51870783912482,44.51870783912482 0 0,0 -0.7607877811737638,-0.09212080528475466 l 3.0279907703270426 -23.322969157397726" fill="red" stroke="none" /><path d="M 97.2962882734958 120.8252237178851 l -2.8720595940305245 22.121915953709248 a43.307574762278364,43.307574762278364 0 0,0 -0.7384383003528883,-0.10234081976378864 l 3.252426485570244 -22.069200568452857" fill="red" stroke="none" /><path d="M 96.93821686468263 120.77559828337769 l -1.180093620432994 8.007474700637609 a29.09396516142354,29.09396516142354 0 0,0 -0.4948248067182728,-0.07728145822326382 l 1.3177542907597837 -7.985974935067238" fill="red" stroke="none" /><path d="M 95.86986931433489 120.58985236759428 l -6.172574971699866 30.772006279685353 a52.38498131683768,52.38498131683768 0 0,0 -0.8825835087028199,-0.18495395544739968 l 6.701349941832072 -30.66119634351141" fill="red" stroke="none" /><path d="M 94.46302465271185 120.25689768951611 l -14.152790181368406 51.777659235123956 a74.6770664789578,74.6770664789578 0 0,0 -1.2370392326385307,-0.34959964359456186 l 15.041960582111551 -51.526370798190875" fill="red" stroke="none" /><path d="M 93.76903079525671 120.05430185196036 l -9.219249195097294 29.672046214926013 a52.071287104045226,52.071287104045226 0 0,0 -0.8536682230268644,-0.27331760705923985 l 9.728638763215098 -29.508955761207066" fill="red" stroke="none" /><path d="M 91.07499286063937 119.00905698771935 l -10.380532688987293 22.109129367259964 a45.424763259556286,45.424763259556286 0 0,0 -0.7049216621608299,-0.33840523585606574 l 10.759567019148363 -21.927169854904335" fill="red" stroke="none" /><line stroke="#e1ed5e" stroke-width="0.3" x1="58.666819895761336" x2="56.23545636021788" y1="174.27360380694188" y2="178.64263932499728" /><path d="M 58.180547188652646 175.14741091055294 a86.0,86.0 0 0,1 -31.652253787137756,-30.449443065178592" fill="none" id="id32" stroke="none" /><text fill="#e1ed5e" style="font-size:6.75px; font-family:Arial;" text-anchor="middle"><textPath startOffset="22.20632615414155" xlink:href="#id32">August</textPath></text><path d="M 88.54995079064634 117.60387380957326 l -15.691358850616691 24.12467370719529 a49.778787744751625,49.778787744751625 0 0,0 -0.714267057787942,-0.47337725810962505 l 16.104300607144594 -23.850998427994345" fill="red" stroke="none" /><path d="M 85.97065885151581 115.62618273729859 l -6.070035106133045 6.760936011631655 a30.086010232388325,30.086010232388325 0 0,0 -0.3823795088461555,-0.3492946152003126 l 6.185514164446055 -6.655448629844766" fill="red" stroke="none" /><path d="M 83.28015986056508 112.70617746262583 l -29.908346565786488 22.728731609239095 a58.56467003534061,58.56467003534061 0 0,0 -0.603045241183922,-0.8078776488107302 l 30.295153073665496 -22.210541080919057" fill="red" stroke="none" /><line stroke="#e1ed5e" stroke-width="0.3" x1="26.63291911575756" x2="22.317208475507996" y1="142.92168965132927" y2="145.44649492493687" /><path d="M 25.769776987707644 143.4266507060508 a86.0,86.0 0 0,1 -11.730757126820373,-40.83630448921669" fill="none" id="id33" stroke="none" /><text fill="#e1ed5e" style="font-size:6.75px; font-family:Arial;" text-anchor="middle"><textPath startOffset="21.46611528233685" xlink:href="#id33">September</textPath></text><line stroke="#e1ed5e" stroke-width="0.3" x1="15.007084014347285" x2="10.007500721073583" y1="101.09737516637583" y2="101.16192664675087" /><path d="M 14.007167355692545 101.11028546245083 a86.0,86.0 0 0,1 10.666146001902534,-42.60595125391555" fill="none" id="id34" stroke="none" /><text fill="#e1ed5e" style="font-size:6.75px; font-family:Arial;" text-anchor="middle"><textPath startOffset="22.20632615414155" xlink:href="#id34">October</textPath></text><path d="M 79.26566170972629 96.67025291283419 l -23.525089066420204 -3.7779164059927597 a44.82650767430411,44.82650767430411 0 0,0 0.12890425490479343,-0.7608002092995994 l 23.456572949995188 4.182302403608187" fill="red" stroke="none" /><path d="M 81.43458229118936 90.18545643968196 l -21.799677067707634 -11.524323531936815 a45.65838504697927,45.65838504697927 0 0,0 0.37329404358717977,-0.6916571692272561 l 21.598074924901983 11.897861684496544" fill="red" stroke="none" /><line stroke="#e1ed5e" stroke-width="0.3" x1="26.266209847984243" x2="21.928928074336255" y1="57.711370442889674" y2="55.22380399835377" /><path d="M 25.398753493254645 57.213857153982495 a86.0,86.0 0 0,1 29.58750427330803,-30.492523968695096" fill="none" id="id35" stroke="none" /><text fill="#e1ed5e" style="font-size:6.75px; font-family:Arial;" text-anchor="middle"><textPath startOffset="21.46611528233685" xlink:href="#id35">November</textPath></text><line stroke="#e1ed5e" stroke-width="0.3" x1="56.762969772571076" x2="54.21961505331055" y1="26.818313649435495" y2="22.513508569990535" /><path d="M 56.25429882871897 25.957352633546506 a86.0,86.0 0 0,1 42.265352541879196,-11.944610805530505" fill="none" id="id36" stroke="none" /><text fill="#e1ed5e" style="font-size:6.75px; font-family:Arial;" text-anchor="middle"><textPath startOffset="22.20632615414155" xlink:href="#id36">December</textPath></text></svg>